<svg width="589" height="589" viewBox="0 0 589 589" fill="none" xmlns="http://www.w3.org/2000/svg">
<rect width="589" height="589" fill="#E5E5E5"/>
<g clip-path="url(#clip0_0_1)">
<rect width="1920" height="4509" transform="translate(-962 -2751)" fill="url(#paint0_linear_0_1)"/>
<g filter="url(#filter0_f_0_1)">
<path d="M561.832 17.6247C728.022 43.7338 685.902 208.513 644.068 287.639C531.299 393.93 305.89 589.267 306.403 520.281C307.044 434.05 372.895 310.916 226.114 273.866C79.3327 236.816 354.094 -15.0116 561.832 17.6247Z" fill="#031444"/>
</g>
<g filter="url(#filter1_f_0_1)">
<path d="M-1.10427 614.068C-131.043 572.589 -76.9086 445.762 -33.5992 387.533C69.911 316.311 274.695 187.672 265.75 242.886C254.57 311.904 186.571 402.425 299.604 450.271C412.636 498.116 161.319 665.917 -1.10427 614.068Z" fill="#1510FF"/>
</g>
<path d="M-527.104 1358.07C-657.043 1316.59 -602.909 1189.76 -559.599 1131.53C-456.089 1060.31 -251.305 931.671 -260.25 986.886C-271.43 1055.9 -339.429 1146.43 -226.396 1194.27C-113.364 1242.12 -364.681 1409.92 -527.104 1358.07Z" fill="#013DD0"/>
<path d="M422.483 -668.627C510.159 -534.646 366.951 -459.173 284.388 -438.185C137.36 -449.924 -144.441 -484.324 -95.4175 -528.006C-34.138 -582.609 94.8241 -614.741 27.2634 -742.007C-40.2973 -869.273 312.889 -836.104 422.483 -668.627Z" fill="#FF10E7"/>
<path d="M-69.0582 905.744C-20.6397 979.735 -99.7253 1021.41 -145.32 1033.01C-226.516 1026.52 -382.139 1007.53 -355.066 983.402C-321.225 953.248 -250.006 935.503 -287.316 865.221C-324.626 794.939 -129.581 813.256 -69.0582 905.744Z" fill="#FF10E7" fill-opacity="0.88"/>
<g filter="url(#filter5_f_0_1)">
<path d="M413.483 216.373C501.159 350.354 357.951 425.827 275.388 446.815C128.36 435.076 -153.441 400.676 -104.417 356.994C-43.138 302.391 85.8241 270.259 18.2634 142.993C-49.2973 15.7268 303.889 48.8959 413.483 216.373Z" fill="#FF10E7" fill-opacity="0.51"/>
</g>
<path d="M17.1984 145.626C16.4816 149.927 11.2249 154.586 5.25134 156.288C-0.0265312 157.856 -5.58825 158.224 -11.0265 157.364C-14.2223 156.378 -17 150.972 -17 145.237C-17 139.503 -11.7732 132.992 -5.32179 130.752C-2.02793 129.462 0.6483 126.962 2.15869 123.764C3.66908 120.566 3.89931 116.911 2.8022 113.548C0.651733 106.409 10.5379 97.27 24.9938 93.656C52.9096 86.3939 81.2348 80.8087 109.818 76.9302C124.752 74.7498 140.223 68.179 144.016 61.8172C147.809 55.4554 163.37 47.9885 178.722 45.7186L189.863 44.1057C205.275 42.015 216.057 48.2872 213.757 57.6058C210.31 68.7261 204.019 78.7537 195.508 86.6969C187.802 93.3574 186.249 100.317 192.013 102.348C197.778 104.378 204.11 103.721 206.021 100.765C207.933 97.8076 217.759 92.1627 227.854 88.3097C237.95 84.4568 248.762 86.8462 251.928 93.7158C255.094 100.585 260.5 105.872 264.024 105.454C267.548 105.036 270.416 114.862 270.416 127.347C270.416 139.831 257.632 149.449 242.101 148.971H237.681C222.15 148.553 210.501 154.108 211.666 160.918C212.831 167.728 203.005 182.423 189.923 192.876L188.429 194.19C175.347 204.614 164.744 217.696 164.744 223.61C164.744 229.524 162.863 234.482 160.563 234.631C158.263 234.78 153.604 230.898 150.169 226.149C146.734 221.4 137.445 220.175 129.5 223.162C121.556 226.149 112.954 233.795 110.326 239.918C107.697 246.04 109.549 252.372 114.417 254.135C116.826 254.994 118.944 256.515 120.528 258.522C122.113 260.529 123.1 262.942 123.378 265.484C123.378 269.905 128.007 274.773 133.682 276.326C139.357 277.879 144.345 282.867 144.703 287.437C145.062 292.007 157.875 295.8 173.257 295.889H180.007C195.388 295.889 211.577 300.399 215.848 305.776C220.119 311.152 228.034 315.722 233.499 315.841C236.027 315.814 238.468 316.766 240.31 318.497C242.153 320.229 243.255 322.605 243.386 325.13C243.386 330.118 250.733 335.554 259.723 337.077C268.713 338.6 281.885 351.682 288.964 366.048C296.042 380.415 296.371 398.574 289.68 406.071C282.99 413.568 278.809 428.382 280.392 439.224C281.974 450.066 273.462 467.987 261.545 478.5C254.407 484.802 250.823 487.878 243.625 493.912C231.677 504.007 221.791 524.108 221.403 539.191C221.015 554.274 224.39 569.656 229.169 573.389C233.947 577.123 235.739 586.083 233.41 593.161C231.08 600.24 221.463 599.314 212.234 591.16C203.005 583.007 196.344 570.582 197.509 563.443C198.674 556.305 196.434 547.195 192.581 543.223C188.728 539.251 185.592 521.868 185.592 504.544V470.346C185.592 452.993 178.991 433.609 170.957 427.367C162.922 421.124 158.263 410.551 160.533 403.682C162.803 396.812 158.771 384.596 151.573 376.801C144.375 369.005 138.431 357.088 138.431 350.099C138.431 343.11 140.91 336.898 143.956 336.211C147.003 335.524 150.736 330.984 152.26 326.026C153.783 321.068 153.156 314.915 150.856 312.346C148.556 309.778 143.628 309.688 139.835 312.048C136.042 314.407 132.308 311.63 131.561 305.925C131.05 302.932 129.767 300.124 127.84 297.777C125.913 295.431 123.407 293.627 120.57 292.544C115.313 290.902 111.012 288.004 111.012 286.003C111.012 284.002 99.9316 279.552 86.5509 276.356C73.1702 273.16 64.0905 266.798 66.3007 261.87C68.5109 256.942 64.5982 247.623 57.6092 241.56C50.6202 235.497 46.0505 218.951 47.3945 204.345C47.3945 202.732 47.6335 201.926 47.7828 200.313C49.1268 185.678 53.5472 172.626 57.6092 171.491C61.6712 170.356 65.5839 164.114 66.3007 157.632C66.9437 150.687 65.2969 143.722 61.6115 137.8C58.2962 133.44 47.1556 131.588 36.9408 133.738C26.7261 135.889 17.9152 141.325 17.1984 145.626Z" fill="url(#paint1_radial_0_1)"/>
<path d="M273.97 82.3957C267.997 74.8392 256.886 68.2385 249.06 67.671C241.235 67.1035 236.188 61.6975 237.741 55.724C239.294 49.7504 237.741 38.4008 234.186 30.9936C230.777 23.9754 228.624 16.4141 227.825 8.65263C227.825 3.72448 240.07 -7.29666 255.153 -15.6596C264.472 -20.8864 269.161 -23.455 278.57 -28.5922C293.683 -36.8357 317.099 -37.2538 330.569 -29.1L332.003 -28.204C345.473 -20.0202 358.167 -3.59307 360.138 7.81635C362.109 19.2258 354.642 33.8908 343.532 40.4019C332.421 46.913 318.532 63.4298 312.589 76.9001C306.645 90.3704 297.984 100.137 293.235 98.793C288.486 97.449 279.854 89.9223 273.97 82.3957Z" fill="url(#paint2_radial_0_1)"/>
<path d="M1059.73 142.22C1070.12 139.92 1076.48 134.753 1074 130.034C1071.52 125.315 1057.9 118.505 1043.54 115.489L1041.9 115.16C1027.53 112.173 1012.03 104.975 1007.64 98.4643C1003.25 91.9531 987.716 80.5437 973.021 73.1366L957.49 65.4606C942.556 58.1729 918.304 51.4228 903.34 50.8553L896.859 50.6463C881.925 50.2281 862.87 41.686 854.775 31.083C846.681 20.48 827.267 8.59268 811.617 5.33711C792.979 1.42446 783.631 -0.367595 764.814 -3.62316C749.014 -6.34111 730.855 -4.75812 724.493 -0.367583C718.131 4.02295 712.964 11.2808 712.964 15.6116C712.964 19.9424 706.154 25.0199 697.821 27.0509C689.488 29.0819 681.633 28.365 680.438 25.3185C679.244 22.272 669.298 18.897 657.978 17.9711C646.658 17.0452 634.353 16.2089 630.35 15.9401C626.348 15.6713 611.623 9.96659 597.496 3.30612C583.369 -3.35435 563.746 -3.86209 553.71 1.96209C543.675 7.78626 532.504 22.5409 528.89 34.5476C525.276 46.5544 524.619 61.757 527.427 68.2681C530.234 74.7793 537.462 80.2152 543.495 80.2152C546.351 80.3006 549.161 79.4797 551.522 77.8701C553.883 76.2604 555.673 73.9447 556.637 71.2549C557.397 68.5754 558.695 66.0788 560.451 63.917C562.207 61.7552 564.385 59.9736 566.852 58.6806C571.272 56.7691 575.543 65.4606 576.35 77.9751C576.505 84.4895 574.801 90.9133 571.436 96.4939C568.072 102.075 563.187 106.581 557.354 109.485C546.124 114.354 535.939 112.681 534.744 105.662C533.549 98.6435 528.263 92.0726 523.036 91.087C517.809 90.1013 513.568 95.8658 513.568 103.9C513.493 107.941 512.289 111.881 510.094 115.274C507.898 118.668 504.798 121.38 501.143 123.105C493.897 126.066 487.772 131.241 483.641 137.889C480.798 143.859 480.276 150.672 482.177 157.005C484.178 161.963 480.564 166.114 474.143 166.204C467.721 166.294 463.779 174.955 465.392 185.379C467.004 195.803 473.575 204.345 479.967 204.285C483.056 204.287 486.066 203.307 488.562 201.488C491.059 199.668 492.912 197.102 493.855 194.16C494.637 191.339 496.376 188.878 498.774 187.2C501.172 185.521 504.079 184.73 506.997 184.961C513.409 185.344 519.782 183.737 525.246 180.361C529.249 177.374 535.819 179.824 539.852 185.827C543.884 191.83 545.825 201.298 544.212 206.734C542.599 212.17 545.586 214.291 550.783 211.304C555.98 208.317 558.31 198.909 555.92 190.397C553.531 181.884 553.501 173.671 555.92 172.207C558.34 170.744 564.881 176.926 570.496 185.976C576.111 195.026 585.668 200.163 591.642 197.177C597.615 194.19 606.815 197.684 612.041 204.703C617.268 211.722 620.524 222.773 619.329 229.195C618.134 235.616 606.337 244.128 593.076 247.952C579.814 251.775 562.79 251.804 555.144 247.802C547.498 243.8 539.314 235.138 536.895 228.627C534.475 222.116 523.305 216.382 512.075 215.904C500.844 215.426 481.341 225.431 468.767 238.035L456.133 250.64C443.588 263.214 432.239 282.777 431.133 294.157C430.028 305.536 426.982 316.498 424.593 318.439C422.203 320.38 420.202 330.894 420.202 341.766C420.202 352.637 428.057 369.781 437.675 379.877C447.292 389.972 466.975 398.514 481.401 398.693C495.827 398.872 511.955 402.218 517.242 406.22C522.528 410.222 527.068 421.751 527.456 431.757C527.845 441.762 533.131 452.843 539.135 456.338C545.138 459.832 548.633 478.947 546.841 498.839C546.631 501.109 546.512 502.244 546.303 504.514C544.451 524.496 546.542 547.374 550.932 555.289C555.323 563.204 559.624 580.348 560.43 593.34C561.237 606.333 570.765 618.817 581.606 620.878C592.448 622.939 610.13 613.381 620.942 599.762C631.754 586.142 640.266 562.487 639.878 547.195C639.49 531.903 645.374 512.967 652.96 505.111C660.546 497.256 667.058 475.991 667.476 457.831C667.894 439.672 674.375 416.524 681.961 406.459C689.548 396.393 694.715 382.296 693.52 375.068C692.326 367.84 683.216 359.328 673.27 356.132C663.324 352.936 654.812 343.826 654.394 335.971C653.778 327.399 651.037 319.116 646.419 311.868C641.906 304.612 639.631 296.187 639.878 287.646C640.266 279.76 642.865 273.309 645.672 273.309C648.48 273.309 656.335 282.628 663.115 293.918C669.895 305.208 675.062 319.544 674.704 325.876C674.345 332.208 676.914 338.6 680.498 340.003C684.082 341.407 696.149 335.583 707.379 327.19C718.609 318.797 720.76 299.622 712.426 284.181C704.093 268.739 703.138 255.627 710.276 255.269C717.414 254.911 724.553 259.331 726.136 265.096C727.719 270.86 735.813 281.463 744.056 288.571C751.965 295.473 760.609 301.482 769.832 306.492C775.805 309.24 779.897 319.455 779.121 329.221C778.344 338.988 787.006 356.998 798.355 368.766C809.705 380.534 823.355 375.486 828.731 358.282C831.061 350.786 832.255 347.022 834.704 339.585C840.081 322.531 849.638 309.718 855.612 311.032C861.585 312.346 870.277 323.785 874.518 336.509C878.759 349.232 885.629 363.091 889.84 367.422C894.051 371.753 897.158 368.378 896.799 359.985C896.441 351.592 897.665 344.603 899.547 344.484C902.606 345.077 905.327 346.805 907.163 349.322C909.463 352.1 916.601 350.547 923.053 346.007C929.504 341.467 934.402 325.697 934.044 310.793C933.686 295.889 937.986 282.329 943.631 280.925C949.276 279.522 955.399 271.965 957.251 264.707C959.103 257.449 956.086 245.711 950.441 238.603C944.796 231.494 942.974 220.503 946.349 214.5C949.724 208.496 954.951 203.897 957.938 204.255C960.925 204.614 968.541 193.891 974.813 180.988C979.741 170.893 982.19 166.055 987.089 156.288C993.331 143.953 1001.46 136.874 1005.01 139.98C1009.19 144.307 1011.57 150.062 1011.67 156.079C1011.66 158.924 1012.24 161.74 1013.39 164.344C1014.54 166.948 1016.22 169.281 1018.33 171.192C1021.97 173.76 1028.52 169.041 1032.88 161.097C1037.24 153.152 1049.33 144.52 1059.73 142.22Z" fill="url(#paint3_radial_0_1)"/>
<path d="M552.056 568.275L386 568.53C386 568.53 386 557.918 408.857 555.805C408.857 555.805 429.676 509.34 461.571 515.576C481.446 519.428 491.638 546.677 491.638 546.677C491.638 546.677 506.627 525.198 518.617 529.335C530.608 533.472 537.787 556.314 537.787 556.314C537.787 556.314 550.168 562.279 552.056 568.275Z" fill="white"/>
<g filter="url(#filter6_b_0_1)">
<path d="M502.248 502.248C616.985 387.511 616.985 201.486 502.248 86.7493C387.511 -27.9875 201.486 -27.9875 86.7493 86.7493C-27.9875 201.486 -27.9875 387.511 86.7493 502.248C201.486 616.985 387.511 616.985 502.248 502.248Z" fill="url(#paint4_radial_0_1)" fill-opacity="0.18"/>
<path d="M501.187 87.81C615.338 201.961 615.338 387.036 501.187 501.187C387.036 615.338 201.961 615.338 87.81 501.187C-26.341 387.036 -26.341 201.961 87.81 87.81C201.961 -26.341 387.036 -26.341 501.187 87.81Z" stroke="url(#paint5_radial_0_1)" stroke-width="3"/>
</g>
<path d="M581.493 357.645L576.924 347.534L560.163 345.706L546.727 337.306L532.688 329.742L521.022 313.273L504.864 299.487L496.814 322.567L505.33 335.887L519.661 343.839L526.894 358.811L538.871 368.028L551.705 373.531L547.33 388.969L542.838 405.652L539.591 424.124L521.722 422.997L508.461 433.36L493.8 438.649L478.925 434.08L466.092 422.608L450.342 411.797L433.017 402.619L423.295 386.247L416.976 372.52L408.984 358.111L408.693 341.778L408.284 325.465L401.129 311.348L395.607 334.973L389.987 349.303L390.318 365.092L384.31 379.831L376.921 397.33L373.032 414.83L383.298 421.15L399.709 422.394L386.915 438.066L375.248 452.571L362.863 466.591L347.307 478.529L329.496 486.015L312.308 494.688L292.436 498.226L278.183 512.732L258.292 516.057L240.422 525.157L222.009 532.351L202.234 532.545L188.429 525.604L168.79 525.351L177.326 510.146L181.993 496.69L187.826 477.518L190.898 457.102L194.787 437.444L200.192 421.072L206.512 404.35L200.678 386.189L209.078 368.806L199.551 353.97L188.954 341.176L175.343 330.676L166.826 316.365L160.351 301.801L155.607 286.362L153.196 269.64L147.499 251.888L162.879 237.363L172.057 219.688L188.176 209.577L203.614 211.074L221.114 213.135L238.381 216.558L257.261 213.485L271.922 228.827L290.841 234.855L307.699 244.693L324.441 254.785L341.377 264.838L353.354 281.676L371.632 289.94L388.704 287.996L405.29 289.532L421.623 293.071L441.223 299.312L435.039 275.318L428.895 255.213L416.451 248.991L406.262 235.127L391.601 229.624L377.99 223.441L376.26 208.683L371.729 194.022L368.19 178.466L349.446 169.6L329.457 165.264L311.569 161.842L298.502 171.564L281.352 172.769L262.472 175.647L241.083 157.097L254.033 144.614L253.586 127.562L262.317 114.631L282.869 105.395L297.063 89.5286L313.669 93.048L329.36 102.965H348.377L366.401 95.848L385.223 98.5119L400.079 90.1703L410.443 77.6093L421.817 66.3706L439.142 63.9012L455.475 71.9511H472.625L488.589 75.1788L493.314 78.0954C531.172 112.913 559.238 157.05 574.711 206.102C590.184 255.154 592.522 307.406 581.493 357.645Z" fill="url(#paint6_radial_0_1)"/>
<path opacity="0.2" d="M316.488 513.062L307.894 525.351L289.072 529.434L274.314 534.762L295.41 541.723H313.63L328.777 530.27L330.818 521.248L316.488 513.062Z" fill="#1053FF"/>
<path opacity="0.2" d="M96.3798 510.962L96.0298 511.137C59.6263 477.757 32.2103 435.75 16.3086 388.989L14.8503 381.347L12.4197 376.603C-2.26986 326.479 -3.2502 273.334 9.58088 222.702L13.1392 235.613L17.4169 253.735L28.2473 270.69L27.5668 290.504L36.8028 307.829L38.7472 326.729L39.9527 342.284L37.7166 357.684L28.7529 372.053L34.3917 390.7L43.5499 406.78L49.1887 420.702L51.5415 439.874L61.2636 453.252L65.1524 469.663L76.1189 482.438L83.7022 496.963L96.3798 510.962Z" fill="#1053FF"/>
<path opacity="0.2" d="M337.06 14.26L325.549 19.0238L310.85 27.4626L295.897 35.3958L280.672 42.4929L263.795 45.2735L247.948 50.3873L232.042 45.0985L215.554 41.6568L199.706 35.6291L183.49 37.3208L166.749 44.6901L153.138 57.5816L142.599 73.9342L123.66 80.8369L113.685 97.4811L102.874 111.189L100.152 129.311L87.2801 142.378L81.8163 159.022L70.4803 172.847L65.9693 188.402L51.3278 186.263L35.228 183.211L24.1837 179.477C49.3245 120.389 93.1257 71.1606 148.89 39.3195C204.654 7.47839 269.312 -5.22306 332.977 3.1573L337.06 14.26Z" fill="#1053FF"/>
<path d="M489.907 31.7541L377 31.919C377 31.919 387.642 21.9817 392.378 21.9817C397.114 21.9817 410.874 -11.3375 428.545 -9.95859C446.216 -8.57966 455.599 16.2111 455.599 16.2111C455.599 16.2111 477.062 9.45136 489.907 31.7541Z" fill="white"/>
<path d="M110.465 84.8635L13.9094 85.0133C13.9094 85.0133 18.7057 78.7482 23.9966 77.9538C23.9966 77.9538 34.2337 47.3026 51.4703 47.0478C67.4929 46.8229 73.9529 65.8582 73.9529 65.8582C73.9529 65.8582 81.3572 57.3148 88.4617 61.2118C95.5661 65.1088 99.583 76.2002 99.583 76.2002C99.583 76.2002 107.572 80.5618 110.465 84.8635Z" fill="white"/>
<path d="M139.106 284.351C85.5925 272.4 34.0438 252.921 -14 226.495C-14 226.39 -14.0899 218.926 6.29428 227.799C6.29428 227.694 24.8199 203.398 54.2571 219.526C72.5579 229.493 82.1055 252.5 82.0905 252.5C82.0756 252.5 96.1197 241.364 107.466 247.584C118.812 253.804 125.587 272.255 125.587 272.27C125.587 272.285 137.308 279.569 139.106 284.351Z" fill="white"/>
<path d="M190.771 552.609C154.074 550.562 117.655 545.042 82 536.122C82 536.122 92.1321 531.31 96.6736 532.285C101.215 533.259 114.39 511.691 131.417 515.438C148.444 519.185 157.526 538.25 157.526 538.295C157.526 538.34 178.315 535.597 190.771 552.609Z" fill="#EBEBEB"/>
<g filter="url(#filter7_f_0_1)">
<path d="M39.891 280.19C5.63415 221.552 159.715 169.304 241.037 150.51C268.833 113.673 332.539 40 364.993 40C405.56 40 480.497 133.031 463.594 171.935C446.691 210.839 334.004 235.647 513.739 312.892C693.475 390.136 419.082 461.742 364.993 514.177C310.903 566.613 260.194 446.518 241.037 365.327C221.88 284.136 82.712 353.487 39.891 280.19Z" fill="black"/>
</g>
<path d="M293.95 278.481L186.182 340.704L293.95 402.926L401.717 340.704L293.95 278.481Z" fill="#252561"/>
<path d="M336.135 378.572L228.367 316.349L249.926 303.89L357.693 366.113L336.135 378.572Z" fill="#37474F"/>
<path d="M186.182 340.704V440.255L293.95 502.478V402.927L186.182 340.704Z" fill="#282F73"/>
<path d="M294 402.223V501.774L401.767 439.649V340L294 402.223Z" fill="#434993"/>
<path d="M357.693 366.113V385.562L355.412 385.12L353.376 388.088L351.071 387.622L349.084 390.565L346.779 390.099L344.768 393.067L342.462 392.601L340.451 395.569L338.121 395.103L336.134 398.046V378.572L357.693 366.113Z" fill="#263238"/>
<path d="M293.95 402.926L296.084 498.578L375.009 455.682L293.95 502.478V402.926Z" fill="#535BB6"/>
<g opacity="0.8">
<path opacity="0.8" d="M323.111 475.573C323.035 475.573 322.96 475.557 322.89 475.527C322.82 475.497 322.756 475.454 322.704 475.399C322.651 475.344 322.61 475.279 322.583 475.207C322.556 475.136 322.544 475.06 322.547 474.984V461.985C322.544 461.909 322.556 461.833 322.583 461.762C322.61 461.69 322.651 461.625 322.704 461.57C322.756 461.515 322.82 461.471 322.89 461.442C322.96 461.412 323.035 461.396 323.111 461.396C323.267 461.396 323.417 461.459 323.528 461.569C323.638 461.679 323.7 461.829 323.7 461.985V475.107C323.672 475.241 323.597 475.36 323.49 475.446C323.382 475.531 323.248 475.576 323.111 475.573Z" fill="white"/>
<path opacity="0.8" d="M321.419 466.498H321.198C321.056 466.438 320.943 466.325 320.883 466.183C320.824 466.041 320.822 465.881 320.879 465.738L322.964 460.955L325.245 463.628C325.299 463.681 325.342 463.744 325.372 463.813C325.401 463.883 325.416 463.958 325.416 464.033C325.416 464.109 325.401 464.183 325.372 464.253C325.342 464.322 325.299 464.385 325.245 464.438C325.133 464.536 324.989 464.59 324.84 464.59C324.691 464.59 324.547 464.536 324.436 464.438L323.332 463.162L322.008 466.228C321.944 466.324 321.856 466.399 321.752 466.447C321.648 466.495 321.532 466.512 321.419 466.498Z" fill="white"/>
<path opacity="0.8" d="M328.482 472.507C328.405 472.507 328.329 472.492 328.257 472.462C328.186 472.432 328.121 472.389 328.066 472.334C328.011 472.28 327.968 472.215 327.939 472.143C327.909 472.072 327.894 471.995 327.894 471.918V458.919C327.894 458.763 327.956 458.613 328.066 458.503C328.177 458.393 328.326 458.331 328.482 458.331C328.638 458.331 328.788 458.393 328.899 458.503C329.009 458.613 329.071 458.763 329.071 458.919V471.918C329.071 472.074 329.009 472.224 328.899 472.334C328.788 472.445 328.638 472.507 328.482 472.507Z" fill="white"/>
<path opacity="0.8" d="M326.79 463.432H326.545C326.474 463.403 326.411 463.36 326.358 463.305C326.304 463.251 326.263 463.186 326.235 463.115C326.208 463.044 326.195 462.968 326.198 462.892C326.2 462.816 326.218 462.741 326.251 462.672L328.311 457.914L330.616 460.563C330.67 460.615 330.713 460.678 330.743 460.748C330.772 460.817 330.787 460.892 330.787 460.967C330.787 461.043 330.772 461.118 330.743 461.187C330.713 461.257 330.67 461.319 330.616 461.372C330.561 461.427 330.496 461.47 330.425 461.5C330.353 461.53 330.277 461.545 330.199 461.545C330.122 461.545 330.045 461.53 329.973 461.5C329.902 461.47 329.837 461.427 329.782 461.372L328.703 460.097L327.354 463.187C327.296 463.28 327.211 463.354 327.11 463.398C327.01 463.442 326.898 463.454 326.79 463.432Z" fill="white"/>
</g>
<g opacity="0.8">
<path opacity="0.8" d="M307.66 484.377C307.439 484.378 307.22 484.328 307.022 484.23C306.794 484.079 306.61 483.87 306.49 483.624C306.369 483.378 306.316 483.105 306.335 482.832V481.238C306.332 481.162 306.344 481.086 306.371 481.014C306.398 480.943 306.439 480.878 306.492 480.823C306.544 480.768 306.608 480.724 306.678 480.694C306.748 480.665 306.823 480.649 306.899 480.649C307.056 480.649 307.205 480.711 307.316 480.822C307.426 480.932 307.488 481.082 307.488 481.238V482.832C307.449 482.952 307.449 483.081 307.488 483.2C307.488 483.2 307.684 483.2 307.88 483.2C308.239 482.867 308.522 482.459 308.708 482.006C308.895 481.553 308.98 481.065 308.96 480.576V473.929C308.959 473.853 308.975 473.778 309.005 473.707C309.035 473.637 309.078 473.574 309.133 473.521C309.188 473.469 309.254 473.428 309.325 473.401C309.396 473.374 309.472 473.362 309.548 473.365C309.698 473.365 309.841 473.424 309.947 473.53C310.053 473.636 310.112 473.78 310.112 473.929V480.576C310.142 481.267 310.009 481.956 309.723 482.587C309.438 483.217 309.008 483.772 308.469 484.206C308.215 484.321 307.939 484.38 307.66 484.377Z" fill="white"/>
<path opacity="0.8" d="M301.553 479.031V478.025C301.684 475.456 302.419 472.953 303.697 470.721C304.975 468.488 306.761 466.587 308.911 465.173C309.682 464.522 310.635 464.124 311.64 464.034C312.645 463.943 313.654 464.166 314.528 464.67C315.403 465.174 316.1 465.936 316.526 466.851C316.951 467.766 317.084 468.791 316.906 469.784V470.201L301.553 479.031ZM312.418 465.296C311.391 465.345 310.395 465.658 309.524 466.204C307.682 467.413 306.121 469.005 304.949 470.872C303.777 472.738 303.02 474.835 302.73 477.02L315.778 469.49C315.821 468.757 315.68 468.025 315.367 467.361C315.054 466.697 314.58 466.122 313.988 465.689C313.504 465.433 312.965 465.298 312.418 465.296Z" fill="white"/>
</g>
<path d="M337.067 378.033L229.275 315.81L250.833 303.375L358.625 365.598L337.067 378.033Z" fill="#FF10BC"/>
<path d="M358.625 365.598L358.6 384.458L356.319 384.017L354.308 386.96L352.003 386.519L350.016 389.462L347.711 388.996L345.675 391.963L343.37 391.497L341.359 394.465L339.053 393.999L337.066 396.942V378.033L358.625 365.598Z" fill="#FF10BC"/>
<path opacity="0.5" d="M229.275 315.81L250.833 304.798L358.625 365.598L250.833 303.375L229.275 315.81Z" fill="white"/>
<path d="M303.834 189.574H283.477V204.388H303.834V189.574Z" fill="#090E3E"/>
<path d="M303.834 204.363L316.612 191.119V182.29L303.834 189.672V204.363Z" fill="#37474F"/>
<path d="M283.477 204.363L270.724 191.119V182.29L283.477 189.672V204.363Z" fill="#37474F"/>
<path d="M293.95 403.981C293.653 403.975 293.369 403.854 293.159 403.644C292.949 403.433 292.828 403.15 292.822 402.853L292.552 196.834C292.549 196.687 292.575 196.541 292.629 196.404C292.683 196.267 292.764 196.143 292.866 196.038C292.969 195.933 293.092 195.849 293.227 195.792C293.363 195.735 293.508 195.706 293.656 195.706C293.803 195.703 293.949 195.729 294.085 195.783C294.222 195.837 294.347 195.917 294.452 196.02C294.557 196.123 294.64 196.246 294.697 196.381C294.754 196.517 294.784 196.662 294.784 196.81L295.078 402.828C295.072 403.125 294.951 403.409 294.741 403.619C294.53 403.829 294.247 403.95 293.95 403.956V403.981Z" fill="#EBEBEB"/>
<path d="M401.717 341.832C401.526 341.829 401.338 341.777 401.171 341.683C401.004 341.589 400.863 341.455 400.761 341.292L310.432 193.915C310.337 193.79 310.269 193.646 310.234 193.493C310.198 193.34 310.194 193.181 310.223 193.027C310.252 192.872 310.314 192.726 310.403 192.596C310.492 192.467 310.607 192.357 310.741 192.275C310.875 192.192 311.024 192.139 311.18 192.118C311.336 192.097 311.494 192.108 311.645 192.152C311.796 192.195 311.936 192.27 312.057 192.371C312.177 192.472 312.275 192.597 312.345 192.738L402.674 340.213C402.754 340.338 402.808 340.478 402.833 340.624C402.857 340.77 402.852 340.92 402.818 341.064C402.784 341.208 402.721 341.344 402.633 341.463C402.545 341.582 402.434 341.683 402.306 341.758C402.119 341.83 401.917 341.855 401.717 341.832Z" fill="#EBEBEB"/>
<path d="M185.79 341.832C185.582 341.828 185.379 341.768 185.202 341.66C184.978 341.501 184.822 341.266 184.763 340.998C184.704 340.731 184.747 340.451 184.883 340.213L275.212 192.836C275.281 192.695 275.379 192.57 275.5 192.469C275.62 192.368 275.761 192.293 275.912 192.25C276.063 192.206 276.221 192.195 276.377 192.216C276.533 192.237 276.682 192.291 276.816 192.373C276.95 192.455 277.065 192.565 277.154 192.694C277.243 192.824 277.304 192.97 277.333 193.125C277.362 193.279 277.359 193.438 277.323 193.591C277.287 193.744 277.22 193.888 277.125 194.013L186.796 341.39C186.678 341.542 186.525 341.661 186.349 341.739C186.173 341.816 185.981 341.848 185.79 341.832Z" fill="#EBEBEB"/>
<path d="M403.164 139.419C395.488 139.419 393.06 89.6553 393.06 89.6553H413.269C413.269 89.6553 410.816 139.419 403.164 139.419Z" fill="#0C1045"/>
<path d="M396.076 85.5349C398.288 84.4105 400.733 83.8245 403.214 83.8245C405.694 83.8245 408.14 84.4105 410.351 85.5349C414.299 87.7913 414.299 91.4947 410.351 93.7756C408.14 94.9 405.694 95.486 403.214 95.486C400.733 95.486 398.288 94.9 396.076 93.7756C392.128 91.4947 392.128 87.7913 396.076 85.5349Z" fill="#090E3E"/>
<path d="M184.687 139.419C192.339 139.419 194.767 89.6553 194.767 89.6553H174.582C174.582 89.6553 177.034 139.419 184.687 139.419Z" fill="#0C1045"/>
<path d="M191.824 85.5349C189.613 84.4105 187.167 83.8245 184.687 83.8245C182.206 83.8245 179.761 84.4105 177.549 85.5349C173.601 87.8158 173.601 91.4947 177.549 93.7756C179.761 94.9 182.206 95.486 184.687 95.486C187.167 95.486 189.613 94.9 191.824 93.7756C195.748 91.4947 195.748 87.8158 191.824 85.5349Z" fill="#090E3E"/>
<path d="M186.575 111.63L263.071 173.461L186.575 235.291L194.227 239.705L293.655 191.119L393.108 239.705L400.76 235.291L324.264 173.461L400.76 111.63L393.108 107.191L293.655 155.777L194.202 107.191L186.575 111.63Z" fill="#E0E0E0"/>
<path d="M194.227 230.876L293.655 173.461L393.108 230.876L400.76 226.462L324.264 155.778L400.76 102.777L393.108 98.3621L293.655 138.119L194.202 98.3621L186.575 102.777L263.071 155.778L186.575 226.462L194.227 230.876Z" fill="#F5F5F5"/>
<path d="M393.108 230.876V239.706L400.761 235.291V226.462L393.108 230.876Z" fill="#E0E0E0"/>
<path d="M293.656 173.461V191.12L393.109 239.706V230.876L293.656 173.461Z" fill="#EBEBEB"/>
<path d="M186.575 102.777L263.071 155.777L251.054 165.244L186.575 111.631V102.777Z" fill="#EBEBEB"/>
<path d="M324.264 155.777L336.282 165.244L400.761 111.631V102.777L324.264 155.777Z" fill="#E0E0E0"/>
<path d="M307.513 147.708H279.823C279.024 147.708 278.376 148.356 278.376 149.156V162.424C278.376 163.223 279.024 163.871 279.823 163.871H307.513C308.312 163.871 308.96 163.223 308.96 162.424V149.156C308.96 148.356 308.312 147.708 307.513 147.708Z" fill="#FF10BC"/>
<path d="M194.227 230.876V239.706L186.575 235.291V226.462L194.227 230.876Z" fill="#EBEBEB"/>
<path d="M401.889 274.214C394.213 274.214 391.784 224.426 391.784 224.426H411.969C411.969 224.426 409.517 274.214 401.889 274.214Z" fill="#0C1045"/>
<path d="M394.752 220.306C396.963 219.181 399.409 218.595 401.889 218.595C404.37 218.595 406.815 219.181 409.026 220.306C412.975 222.587 412.975 226.29 409.026 228.546C406.815 229.671 404.37 230.257 401.889 230.257C399.409 230.257 396.963 229.671 394.752 228.546C390.902 226.29 390.902 222.488 394.752 220.306Z" fill="#090E3E"/>
<path d="M185.447 274.214C193.124 274.214 195.552 224.426 195.552 224.426H175.342C175.342 224.426 177.795 274.214 185.447 274.214Z" fill="#0C1045"/>
<path d="M192.584 220.306C190.373 219.181 187.927 218.595 185.447 218.595C182.966 218.595 180.521 219.181 178.31 220.306C174.361 222.587 174.361 226.29 178.31 228.546C180.521 229.671 182.966 230.257 185.447 230.257C187.927 230.257 190.373 229.671 192.584 228.546C196.533 226.29 196.533 222.488 192.584 220.306Z" fill="#090E3E"/>
<path opacity="0.3" d="M441.278 199.311L401.889 222.047L362.501 199.311C384.231 186.754 419.499 186.754 441.278 199.311Z" fill="#FF10BC"/>
<path opacity="0.1" d="M441.278 244.783L401.889 222.047L441.278 199.311C463.008 211.869 463.008 232.299 441.278 244.783Z" fill="#FF10BC"/>
<path opacity="0.3" d="M441.278 244.782C419.499 257.34 384.231 257.34 362.501 244.782L401.889 222.047L441.278 244.782Z" fill="#FF10BC"/>
<path opacity="0.1" d="M401.889 222.047L362.5 244.783C340.77 232.225 340.77 211.869 362.5 199.311L401.889 222.047Z" fill="#FF10BC"/>
<path d="M407.702 224.941V222.488H405.789C404.568 221.918 403.237 221.623 401.889 221.623C400.542 221.623 399.211 221.918 397.99 222.488H396.077V224.941C396.11 225.465 396.285 225.97 396.583 226.402C396.881 226.834 397.291 227.176 397.769 227.393C399.044 228.034 400.451 228.368 401.877 228.368C403.304 228.368 404.711 228.034 405.985 227.393C406.468 227.18 406.883 226.839 407.185 226.406C407.488 225.974 407.667 225.467 407.702 224.941Z" fill="#FF10BC"/>
<path opacity="0.3" d="M407.702 224.941V222.488H405.789C404.568 221.918 403.237 221.623 401.889 221.623C400.542 221.623 399.211 221.918 397.99 222.488H396.077V224.941C396.11 225.465 396.285 225.97 396.583 226.402C396.881 226.834 397.291 227.176 397.769 227.393C399.044 228.034 400.451 228.368 401.877 228.368C403.304 228.368 404.711 228.034 405.985 227.393C406.468 227.18 406.883 226.839 407.185 226.406C407.488 225.974 407.667 225.467 407.702 224.941Z" fill="black"/>
<path d="M405.985 220.036C404.71 219.395 403.303 219.061 401.877 219.061C400.45 219.061 399.043 219.395 397.769 220.036C397.238 220.168 396.768 220.475 396.431 220.906C396.095 221.337 395.912 221.868 395.912 222.415C395.912 222.961 396.095 223.492 396.431 223.923C396.768 224.354 397.238 224.661 397.769 224.794C399.043 225.434 400.45 225.768 401.877 225.768C403.303 225.768 404.71 225.434 405.985 224.794C406.515 224.661 406.986 224.354 407.322 223.923C407.659 223.492 407.841 222.961 407.841 222.415C407.841 221.868 407.659 221.337 407.322 220.906C406.986 220.475 406.515 220.168 405.985 220.036Z" fill="#FF10BC"/>
<path d="M403.925 221.286C403.292 220.971 402.596 220.807 401.889 220.807C401.183 220.807 400.486 220.971 399.853 221.286C398.725 221.948 398.725 223.003 399.853 223.739C400.482 224.066 401.18 224.236 401.889 224.236C402.598 224.236 403.296 224.066 403.925 223.739C405.053 223.003 405.053 221.948 403.925 221.286Z" fill="#090E3E"/>
<path opacity="0.3" d="M224.836 199.311L185.447 222.047L146.058 199.311C167.714 186.754 203.056 186.754 224.836 199.311Z" fill="#FF10BC"/>
<path opacity="0.1" d="M224.836 244.783L185.447 222.047L224.836 199.311C246.566 211.869 246.566 232.299 224.836 244.783Z" fill="#FF10BC"/>
<path opacity="0.3" d="M224.836 244.782C203.056 257.34 167.813 257.34 146.058 244.782L185.447 222.047L224.836 244.782Z" fill="#FF10BC"/>
<path opacity="0.1" d="M185.447 222.047L146.058 244.783C124.328 232.225 124.328 211.869 146.058 199.311L185.447 222.047Z" fill="#FF10BC"/>
<path d="M191.259 224.941V222.488H189.346C188.125 221.918 186.794 221.623 185.447 221.623C184.099 221.623 182.768 221.918 181.547 222.488H179.634V224.941C179.669 225.467 179.848 225.974 180.151 226.406C180.453 226.839 180.868 227.18 181.351 227.393C182.625 228.034 184.032 228.368 185.459 228.368C186.885 228.368 188.292 228.034 189.567 227.393C190.045 227.176 190.455 226.834 190.753 226.402C191.051 225.97 191.226 225.465 191.259 224.941Z" fill="#FF10BC"/>
<path opacity="0.3" d="M191.259 224.941V222.488H189.346C188.125 221.918 186.794 221.623 185.447 221.623C184.099 221.623 182.768 221.918 181.547 222.488H179.634V224.941C179.669 225.467 179.848 225.974 180.151 226.406C180.453 226.839 180.868 227.18 181.351 227.393C182.625 228.034 184.032 228.368 185.459 228.368C186.885 228.368 188.292 228.034 189.567 227.393C190.045 227.176 190.455 226.834 190.753 226.402C191.051 225.97 191.226 225.465 191.259 224.941Z" fill="black"/>
<path d="M189.567 220.036C188.293 219.395 186.886 219.061 185.459 219.061C184.033 219.061 182.626 219.395 181.351 220.036C180.821 220.168 180.35 220.475 180.014 220.906C179.677 221.337 179.495 221.868 179.495 222.415C179.495 222.961 179.677 223.492 180.014 223.923C180.35 224.354 180.821 224.661 181.351 224.794C182.626 225.434 184.033 225.768 185.459 225.768C186.886 225.768 188.293 225.434 189.567 224.794C190.098 224.661 190.568 224.354 190.905 223.923C191.241 223.492 191.424 222.961 191.424 222.415C191.424 221.868 191.241 221.337 190.905 220.906C190.568 220.475 190.098 220.168 189.567 220.036Z" fill="#FF10BC"/>
<path d="M187.482 221.286C186.85 220.971 186.153 220.807 185.447 220.807C184.74 220.807 184.043 220.971 183.411 221.286C182.283 221.948 182.283 223.003 183.411 223.739C184.04 224.066 184.738 224.236 185.447 224.236C186.155 224.236 186.854 224.066 187.482 223.739C188.611 223.003 188.611 221.948 187.482 221.286Z" fill="#090E3E"/>
<path opacity="0.3" d="M442.602 64.418L403.165 87.1536L363.923 64.418C385.579 51.8607 420.823 51.8607 442.602 64.418Z" fill="#FF10BC"/>
<path opacity="0.1" d="M442.602 109.889L403.164 87.1536L442.553 64.418C464.332 76.9753 464.332 97.4055 442.602 109.889Z" fill="#FF10BC"/>
<path opacity="0.3" d="M442.602 109.889C420.823 122.447 385.579 122.447 363.824 109.889L403.164 87.1536L442.602 109.889Z" fill="#FF10BC"/>
<path opacity="0.1" d="M403.165 87.1536L363.923 109.889C342.193 97.3319 342.193 76.9753 363.923 64.418L403.165 87.1536Z" fill="#FF10BC"/>
<path d="M409.026 90.0479V87.5953H407.113C405.892 87.0255 404.561 86.7302 403.214 86.7302C401.866 86.7302 400.535 87.0255 399.314 87.5953H397.401V90.0479C397.436 90.5744 397.615 91.0812 397.918 91.5135C398.22 91.9458 398.635 92.2871 399.118 92.5005C400.392 93.1412 401.799 93.4748 403.226 93.4748C404.652 93.4748 406.059 93.1412 407.334 92.5005C407.812 92.2836 408.222 91.9408 408.52 91.5088C408.818 91.0767 408.993 90.5718 409.026 90.0479Z" fill="#FF10BC"/>
<path opacity="0.3" d="M409.026 90.0479V87.5953H407.113C405.892 87.0255 404.561 86.7302 403.214 86.7302C401.866 86.7302 400.535 87.0255 399.314 87.5953H397.401V90.0479C397.436 90.5744 397.615 91.0812 397.918 91.5135C398.22 91.9458 398.635 92.2871 399.118 92.5005C400.392 93.1412 401.799 93.4748 403.226 93.4748C404.652 93.4748 406.059 93.1412 407.334 92.5005C407.812 92.2836 408.222 91.9408 408.52 91.5088C408.818 91.0767 408.993 90.5718 409.026 90.0479Z" fill="black"/>
<path d="M407.334 85.1426C406.063 84.4905 404.655 84.1504 403.226 84.1504C401.797 84.1504 400.389 84.4905 399.118 85.1426C398.598 85.2837 398.14 85.592 397.813 86.0197C397.486 86.4475 397.308 86.9709 397.308 87.5093C397.308 88.0477 397.486 88.5712 397.813 88.9989C398.14 89.4266 398.598 89.7349 399.118 89.8761C400.389 90.5281 401.797 90.8682 403.226 90.8682C404.655 90.8682 406.063 90.5281 407.334 89.8761C407.854 89.7349 408.312 89.4266 408.639 88.9989C408.966 88.5712 409.143 88.0477 409.143 87.5093C409.143 86.9709 408.966 86.4475 408.639 86.0197C408.312 85.592 407.854 85.2837 407.334 85.1426Z" fill="#FF10BC"/>
<path d="M405.249 86.3932C404.617 86.0779 403.92 85.9138 403.213 85.9138C402.507 85.9138 401.81 86.0779 401.177 86.3932C400.049 87.0554 400.049 88.11 401.177 88.8458C401.806 89.1726 402.504 89.3432 403.213 89.3432C403.922 89.3432 404.62 89.1726 405.249 88.8458C406.377 88.11 406.377 87.0554 405.249 86.3932Z" fill="#090E3E"/>
<path opacity="0.3" d="M224.124 64.418L184.76 87.1536L145.371 64.418C167.028 51.8607 202.296 51.8607 224.124 64.418Z" fill="#FF10BC"/>
<path opacity="0.1" d="M224.125 109.889L184.76 87.1536L224.125 64.418C245.806 76.9753 245.806 97.4055 224.125 109.889Z" fill="#FF10BC"/>
<path opacity="0.3" d="M224.124 109.889C202.37 122.447 167.101 122.447 145.371 109.889L184.76 87.1536L224.124 109.889Z" fill="#FF10BC"/>
<path opacity="0.1" d="M184.686 87.1536L145.298 109.889C123.567 97.4055 123.567 76.9753 145.298 64.418L184.686 87.1536Z" fill="#FF10BC"/>
<path d="M190.499 90.0479V87.5953H188.586C187.365 87.0255 186.034 86.7302 184.686 86.7302C183.339 86.7302 182.008 87.0255 180.787 87.5953H178.874V90.0479C178.907 90.5718 179.082 91.0767 179.38 91.5088C179.678 91.9408 180.088 92.2836 180.566 92.5005C181.841 93.1412 183.248 93.4748 184.674 93.4748C186.101 93.4748 187.508 93.1412 188.782 92.5005C189.265 92.2871 189.68 91.9458 189.982 91.5135C190.285 91.0812 190.464 90.5744 190.499 90.0479Z" fill="#FF10BC"/>
<path opacity="0.3" d="M190.499 90.0479V87.5953H188.586C187.365 87.0255 186.034 86.7302 184.686 86.7302C183.339 86.7302 182.008 87.0255 180.787 87.5953H178.874V90.0479C178.907 90.5718 179.082 91.0767 179.38 91.5088C179.678 91.9408 180.088 92.2836 180.566 92.5005C181.841 93.1412 183.248 93.4748 184.674 93.4748C186.101 93.4748 187.508 93.1412 188.782 92.5005C189.265 92.2871 189.68 91.9458 189.982 91.5135C190.285 91.0812 190.464 90.5744 190.499 90.0479Z" fill="black"/>
<path d="M188.782 85.1426C187.511 84.4905 186.103 84.1504 184.674 84.1504C183.245 84.1504 181.837 84.4905 180.566 85.1426C180.046 85.2837 179.588 85.592 179.261 86.0197C178.934 86.4475 178.757 86.9709 178.757 87.5093C178.757 88.0477 178.934 88.5712 179.261 88.9989C179.588 89.4266 180.046 89.7349 180.566 89.8761C181.837 90.5281 183.245 90.8682 184.674 90.8682C186.103 90.8682 187.511 90.5281 188.782 89.8761C189.302 89.7349 189.76 89.4266 190.087 88.9989C190.414 88.5712 190.592 88.0477 190.592 87.5093C190.592 86.9709 190.414 86.4475 190.087 86.0197C189.76 85.592 189.302 85.2837 188.782 85.1426Z" fill="#FF10BC"/>
<path d="M186.722 86.3932C186.085 86.0794 185.384 85.9163 184.674 85.9163C183.964 85.9163 183.263 86.0794 182.626 86.3932C182.343 86.4501 182.088 86.6034 181.905 86.8269C181.722 87.0505 181.622 87.3305 181.622 87.6195C181.622 87.9084 181.722 88.1885 181.905 88.412C182.088 88.6356 182.343 88.7888 182.626 88.8458C183.26 89.1727 183.962 89.3433 184.674 89.3433C185.387 89.3433 186.089 89.1727 186.722 88.8458C187.85 88.11 187.85 87.0554 186.722 86.3932Z" fill="#090E3E"/>
<path d="M296.942 153.815C295.918 153.302 294.789 153.034 293.644 153.034C292.498 153.034 291.369 153.302 290.345 153.815C289.958 153.957 289.624 154.214 289.388 154.552C289.152 154.89 289.025 155.292 289.025 155.704C289.025 156.116 289.152 156.518 289.388 156.856C289.624 157.194 289.958 157.451 290.345 157.592C291.358 158.113 292.48 158.385 293.619 158.385C294.758 158.385 295.88 158.113 296.893 157.592C297.282 157.456 297.62 157.203 297.86 156.868C298.101 156.534 298.232 156.133 298.238 155.721C298.243 155.309 298.122 154.905 297.89 154.564C297.658 154.223 297.327 153.962 296.942 153.815Z" fill="#FAFAFA"/>
<path d="M484.557 356.734C484.168 352.852 481.56 349 476.808 349C472.057 349 469.449 352.852 469.059 356.734C468.46 362.729 472.507 368.14 476.808 373.086C481.11 368.17 485.157 362.714 484.557 356.734ZM476.808 361.036C475.969 361.036 475.149 360.787 474.452 360.321C473.754 359.855 473.21 359.192 472.889 358.417C472.568 357.642 472.484 356.789 472.648 355.966C472.812 355.144 473.216 354.388 473.809 353.795C474.402 353.201 475.158 352.797 475.981 352.634C476.804 352.47 477.656 352.554 478.431 352.875C479.207 353.196 479.869 353.74 480.335 354.437C480.801 355.135 481.05 355.955 481.05 356.794C481.046 357.918 480.598 358.994 479.803 359.789C479.009 360.584 477.932 361.032 476.808 361.036Z" fill="#1053FF"/>
<path d="M55.8368 400.372C55.3272 395.171 51.745 390 45.4498 390C39.1547 390 35.5875 395.171 35.0779 400.372C34.2835 408.391 39.6943 415.645 45.4498 422.27C51.2354 415.615 56.6312 408.361 55.8368 400.372ZM45.4498 406.128C44.327 406.125 43.2302 405.789 42.298 405.163C41.3658 404.537 40.64 403.649 40.2123 402.61C39.7847 401.572 39.6743 400.43 39.8952 399.33C40.1161 398.229 40.6583 397.218 41.4533 396.425C42.2484 395.632 43.2606 395.092 44.3621 394.874C45.4636 394.656 46.605 394.77 47.6422 395.2C48.6793 395.631 49.5656 396.359 50.1891 397.293C50.8126 398.226 51.1454 399.324 51.1454 400.447C51.1375 401.951 50.5335 403.39 49.4658 404.45C48.3981 405.509 46.9538 406.102 45.4498 406.098V406.128Z" fill="#FFE710"/>
<path d="M489.837 152.357C489.327 147.171 485.745 142 479.45 142C473.155 142 469.587 147.171 469.078 152.357C468.283 160.376 473.694 167.645 479.45 174.27C485.235 167.705 490.661 160.376 489.837 152.357ZM479.45 158.127C478.323 158.127 477.221 157.793 476.284 157.167C475.347 156.54 474.617 155.65 474.186 154.608C473.756 153.566 473.644 152.42 473.865 151.315C474.086 150.21 474.63 149.195 475.428 148.399C476.226 147.603 477.242 147.062 478.348 146.844C479.454 146.626 480.599 146.741 481.64 147.174C482.68 147.608 483.569 148.34 484.193 149.279C484.817 150.217 485.148 151.32 485.145 152.447C485.145 153.194 484.998 153.934 484.712 154.624C484.425 155.314 484.005 155.941 483.476 156.469C482.947 156.997 482.319 157.415 481.628 157.699C480.937 157.984 480.197 158.129 479.45 158.127Z" fill="#10FFD4"/>
<path d="M64.5573 137.734C64.1676 133.852 61.5596 130 56.8083 130C52.0569 130 49.449 133.852 49.0593 137.734C48.4597 143.729 52.5066 149.14 56.8083 154.086C61.1099 149.14 65.1568 143.714 64.5573 137.734ZM56.8083 142.021C55.9693 142.021 55.1492 141.772 54.4517 141.306C53.7541 140.84 53.2105 140.177 52.8894 139.402C52.5684 138.627 52.4844 137.774 52.648 136.951C52.8117 136.129 53.2157 135.373 53.8089 134.78C54.4021 134.186 55.1579 133.782 55.9807 133.619C56.8035 133.455 57.6564 133.539 58.4315 133.86C59.2066 134.181 59.869 134.725 60.3351 135.422C60.8012 136.12 61.05 136.94 61.05 137.779C61.05 138.336 60.9403 138.888 60.7271 139.402C60.5139 139.917 60.2015 140.384 59.8076 140.778C59.4137 141.172 58.9461 141.485 58.4315 141.698C57.9169 141.911 57.3653 142.021 56.8083 142.021Z" fill="#1053FF"/>
<path d="M260.837 11.357C260.327 6.17099 256.745 1 250.45 1C244.155 1 240.587 6.17099 240.078 11.357C239.283 19.3758 244.694 26.6301 250.45 33.255C256.22 26.6301 261.631 19.3758 260.837 11.357ZM250.45 17.1275C249.323 17.1275 248.222 16.7935 247.286 16.1676C246.349 15.5418 245.619 14.6522 245.188 13.6115C244.757 12.5708 244.644 11.4256 244.864 10.3208C245.083 9.21592 245.626 8.20106 246.422 7.40452C247.219 6.60798 248.234 6.06552 249.339 5.84576C250.444 5.62599 251.589 5.73879 252.629 6.16988C253.67 6.60096 254.56 7.33098 255.186 8.26761C255.811 9.20425 256.145 10.3054 256.145 11.4319C256.145 12.1799 255.998 12.9205 255.712 13.6115C255.426 14.3025 255.006 14.9304 254.477 15.4593C253.948 15.9882 253.32 16.4077 252.629 16.694C251.938 16.9802 251.198 17.1275 250.45 17.1275Z" fill="#FF10BC"/>
</g>
<defs>
<filter id="filter0_f_0_1" x="-175.29" y="-345.286" width="1217" height="1239.98" filterUnits="userSpaceOnUse" color-interpolation-filters="sRGB">
<feFlood flood-opacity="0" result="BackgroundImageFix"/>
<feBlend mode="normal" in="SourceGraphic" in2="BackgroundImageFix" result="shape"/>
<feGaussianBlur stdDeviation="180" result="effect1_foregroundBlur_0_1"/>
</filter>
<filter id="filter1_f_0_1" x="-442.567" y="-130.519" width="1130.47" height="1114.42" filterUnits="userSpaceOnUse" color-interpolation-filters="sRGB">
<feFlood flood-opacity="0" result="BackgroundImageFix"/>
<feBlend mode="normal" in="SourceGraphic" in2="BackgroundImageFix" result="shape"/>
<feGaussianBlur stdDeviation="180" result="effect1_foregroundBlur_0_1"/>
</filter>
<filter id="filter5_f_0_1" x="-470.072" y="-294.438" width="1271" height="1101.25" filterUnits="userSpaceOnUse" color-interpolation-filters="sRGB">
<feFlood flood-opacity="0" result="BackgroundImageFix"/>
<feBlend mode="normal" in="SourceGraphic" in2="BackgroundImageFix" result="shape"/>
<feGaussianBlur stdDeviation="180" result="effect1_foregroundBlur_0_1"/>
</filter>
<filter id="filter6_b_0_1" x="-48.3033" y="-48.3033" width="685.604" height="685.604" filterUnits="userSpaceOnUse" color-interpolation-filters="sRGB">
<feFlood flood-opacity="0" result="BackgroundImageFix"/>
<feGaussianBlur in="BackgroundImage" stdDeviation="24.5"/>
<feComposite in2="SourceAlpha" operator="in" result="effect1_backgroundBlur_0_1"/>
<feBlend mode="normal" in="SourceGraphic" in2="effect1_backgroundBlur_0_1" result="shape"/>
</filter>
<filter id="filter7_f_0_1" x="-235" y="-230" width="1079" height="1027" filterUnits="userSpaceOnUse" color-interpolation-filters="sRGB">
<feFlood flood-opacity="0" result="BackgroundImageFix"/>
<feBlend mode="normal" in="SourceGraphic" in2="BackgroundImageFix" result="shape"/>
<feGaussianBlur stdDeviation="135" result="effect1_foregroundBlur_0_1"/>
</filter>
<linearGradient id="paint0_linear_0_1" x1="1000.5" y1="-285.988" x2="277.456" y2="4637.91" gradientUnits="userSpaceOnUse">
<stop stop-color="#000104"/>
<stop offset="0.278583" stop-color="#030526"/>
<stop offset="0.404569" stop-color="#030526"/>
<stop offset="0.607622" stop-color="#02031A"/>
<stop offset="0.743922" stop-color="#030526"/>
<stop offset="0.996081" stop-color="#04031C"/>
</linearGradient>
<radialGradient id="paint1_radial_0_1" cx="0" cy="0" r="1" gradientUnits="userSpaceOnUse" gradientTransform="translate(265.089 69.8868) rotate(154.928) scale(250.154 1035.78)">
<stop stop-color="#1E1E42"/>
<stop offset="0.706455" stop-color="#1E1E43" stop-opacity="0.22"/>
</radialGradient>
<radialGradient id="paint2_radial_0_1" cx="0" cy="0" r="1" gradientUnits="userSpaceOnUse" gradientTransform="translate(347.934 -28.6731) rotate(165.131) scale(99.8184 267.057)">
<stop stop-color="#1E1E42"/>
<stop offset="0.706455" stop-color="#1E1E43" stop-opacity="0.22"/>
</radialGradient>
<radialGradient id="paint3_radial_0_1" cx="0" cy="0" r="1" gradientUnits="userSpaceOnUse" gradientTransform="translate(1012.77 24.6181) rotate(165.878) scale(490.807 1252.82)">
<stop stop-color="#1E1E42"/>
<stop offset="0.706455" stop-color="#1E1E43" stop-opacity="0.22"/>
</radialGradient>
<radialGradient id="paint4_radial_0_1" cx="0" cy="0" r="1" gradientUnits="userSpaceOnUse" gradientTransform="translate(42.8665 130.229) rotate(38.1111) scale(633.542 679.666)">
<stop stop-color="#000105" stop-opacity="0.58"/>
<stop offset="0.961353" stop-color="#0C1138" stop-opacity="0.1"/>
</radialGradient>
<radialGradient id="paint5_radial_0_1" cx="0" cy="0" r="1" gradientUnits="userSpaceOnUse" gradientTransform="translate(87.6148 37.4571) rotate(82.3414) scale(887.249 887.256)">
<stop offset="0.201223" stop-color="#0303FF" stop-opacity="0"/>
<stop offset="0.323218" stop-color="white"/>
<stop offset="0.417215" stop-color="#000BFF" stop-opacity="0"/>
<stop offset="0.535687" stop-color="white" stop-opacity="0"/>
<stop offset="1" stop-color="white" stop-opacity="0"/>
</radialGradient>
<radialGradient id="paint6_radial_0_1" cx="0" cy="0" r="1" gradientUnits="userSpaceOnUse" gradientTransform="translate(552.763 141.672) rotate(115.31) scale(432.378 406.722)">
<stop offset="0.0253396" stop-color="white"/>
<stop offset="0.399386" stop-color="#1053FF"/>
<stop offset="0.678784" stop-color="#1053FF" stop-opacity="0"/>
</radialGradient>
<clipPath id="clip0_0_1">
<rect width="1920" height="4509" fill="white" transform="translate(-962 -2751)"/>
</clipPath>
</defs>
</svg>
