<svg width="975" height="657" viewBox="0 0 975 657" fill="none" xmlns="http://www.w3.org/2000/svg">
<rect width="975" height="657" fill="#E5E5E5"/>
<g clip-path="url(#clip0_0_1)">
<rect width="1920" height="4509" transform="translate(-945 -2716)" fill="url(#paint0_linear_0_1)"/>
<g filter="url(#filter0_f_0_1)">
<path d="M578.832 52.6247C745.022 78.7338 702.902 243.513 661.068 322.639C548.299 428.93 322.89 624.267 323.403 555.281C324.044 469.05 389.895 345.916 243.114 308.866C96.3327 271.816 371.094 19.9884 578.832 52.6247Z" fill="#031444"/>
</g>
<g filter="url(#filter1_f_0_1)">
<path d="M15.8957 649.068C-114.043 607.589 -59.9086 480.762 -16.5992 422.533C86.911 351.311 291.695 222.672 282.75 277.886C271.57 346.904 203.571 437.425 316.604 485.271C429.636 533.116 178.319 700.917 15.8957 649.068Z" fill="#1510FF"/>
</g>
<g filter="url(#filter2_f_0_1)">
<path d="M-510.104 1393.07C-640.043 1351.59 -585.909 1224.76 -542.599 1166.53C-439.089 1095.31 -234.305 966.671 -243.25 1021.89C-254.43 1090.9 -322.429 1181.43 -209.396 1229.27C-96.3636 1277.12 -347.681 1444.92 -510.104 1393.07Z" fill="#013DD0"/>
</g>
<path d="M439.483 -633.627C527.159 -499.646 383.951 -424.173 301.388 -403.185C154.36 -414.924 -127.441 -449.324 -78.4175 -493.006C-17.138 -547.609 111.824 -579.741 44.2634 -707.007C-23.2973 -834.273 329.889 -801.104 439.483 -633.627Z" fill="#FF10E7"/>
<g filter="url(#filter4_f_0_1)">
<path d="M-52.0582 940.744C-3.63974 1014.73 -82.7253 1056.41 -128.32 1068.01C-209.516 1061.52 -365.139 1042.53 -338.066 1018.4C-304.225 988.248 -233.006 970.503 -270.316 900.221C-307.626 829.939 -112.581 848.256 -52.0582 940.744Z" fill="#FF10E7" fill-opacity="0.88"/>
</g>
<g filter="url(#filter5_f_0_1)">
<path d="M430.483 251.373C518.159 385.354 374.951 460.827 292.388 481.815C145.36 470.076 -136.441 435.676 -87.4175 391.994C-26.138 337.391 102.824 305.259 35.2634 177.993C-32.2973 50.7268 320.889 83.8959 430.483 251.373Z" fill="#FF10E7" fill-opacity="0.51"/>
</g>
<path d="M34.1984 180.626C33.4816 184.927 28.2249 189.586 22.2513 191.288C16.9735 192.856 11.4118 193.224 5.97352 192.364C2.77769 191.378 0 185.972 0 180.237C0 174.503 5.22682 167.992 11.6782 165.752C14.9721 164.462 17.6483 161.962 19.1587 158.764C20.6691 155.566 20.8993 151.911 19.8022 148.548C17.6517 141.409 27.5379 132.27 41.9938 128.656C69.9096 121.394 98.2348 115.809 126.818 111.93C141.752 109.75 157.223 103.179 161.016 96.8172C164.809 90.4554 180.37 82.9885 195.722 80.7186L206.863 79.1057C222.275 77.015 233.057 83.2872 230.757 92.6058C227.31 103.726 221.019 113.754 212.508 121.697C204.802 128.357 203.249 135.317 209.013 137.348C214.778 139.378 221.11 138.721 223.021 135.765C224.933 132.808 234.759 127.163 244.854 123.31C254.95 119.457 265.762 121.846 268.928 128.716C272.094 135.585 277.5 140.872 281.024 140.454C284.548 140.036 287.416 149.862 287.416 162.347C287.416 174.831 274.632 184.449 259.101 183.971H254.681C239.15 183.553 227.501 189.108 228.666 195.918C229.831 202.728 220.005 217.422 206.923 227.876L205.429 229.19C192.347 239.614 181.744 252.696 181.744 258.61C181.744 264.524 179.863 269.482 177.563 269.631C175.263 269.78 170.604 265.898 167.169 261.149C163.734 256.4 154.445 255.175 146.5 258.162C138.556 261.149 129.954 268.795 127.326 274.918C124.697 281.04 126.549 287.372 131.417 289.135C133.826 289.994 135.944 291.515 137.528 293.522C139.113 295.529 140.1 297.942 140.378 300.484C140.378 304.905 145.007 309.773 150.682 311.326C156.357 312.879 161.345 317.867 161.703 322.437C162.062 327.007 174.875 330.8 190.257 330.889H197.007C212.388 330.889 228.577 335.399 232.848 340.776C237.119 346.152 245.034 350.722 250.499 350.841C253.027 350.814 255.468 351.766 257.31 353.497C259.153 355.229 260.255 357.605 260.386 360.13C260.386 365.118 267.733 370.554 276.723 372.077C285.713 373.6 298.885 386.682 305.964 401.048C313.042 415.415 313.371 433.574 306.68 441.071C299.99 448.568 295.809 463.382 297.392 474.224C298.974 485.066 290.462 502.986 278.545 513.5C271.407 519.802 267.823 522.878 260.625 528.912C248.677 539.007 238.791 559.108 238.403 574.191C238.015 589.274 241.39 604.656 246.169 608.389C250.947 612.123 252.739 621.083 250.41 628.162C248.08 635.24 238.463 634.314 229.234 626.16C220.005 618.007 213.344 605.582 214.509 598.443C215.674 591.305 213.434 582.195 209.581 578.223C205.728 574.251 202.592 556.868 202.592 539.544V505.346C202.592 487.993 195.991 468.609 187.957 462.367C179.922 456.124 175.263 445.551 177.533 438.682C179.803 431.812 175.771 419.596 168.573 411.801C161.375 404.005 155.431 392.088 155.431 385.099C155.431 378.11 157.91 371.898 160.956 371.211C164.003 370.524 167.736 365.984 169.26 361.026C170.783 356.068 170.156 349.915 167.856 347.346C165.556 344.778 160.628 344.688 156.835 347.048C153.042 349.407 149.308 346.63 148.561 340.925C148.05 337.932 146.767 335.124 144.84 332.777C142.913 330.431 140.407 328.627 137.57 327.544C132.313 325.902 128.012 323.004 128.012 321.003C128.012 319.002 116.932 314.552 103.551 311.356C90.1702 308.16 81.0905 301.798 83.3007 296.87C85.5109 291.942 81.5982 282.623 74.6092 276.56C67.6202 270.497 63.0505 253.951 64.3945 239.345C64.3945 237.732 64.6335 236.926 64.7828 235.313C66.1268 220.678 70.5472 207.626 74.6092 206.491C78.6712 205.356 82.5839 199.114 83.3007 192.632C83.9437 185.687 82.2969 178.722 78.6115 172.8C75.2962 168.44 64.1556 166.588 53.9409 168.738C43.7261 170.889 34.9152 176.325 34.1984 180.626Z" fill="url(#paint1_radial_0_1)"/>
<path d="M290.97 117.396C284.997 109.839 273.886 103.238 266.06 102.671C258.235 102.104 253.188 96.6975 254.741 90.724C256.294 84.7504 254.741 73.4008 251.186 65.9936C247.777 58.9754 245.624 51.4141 244.825 43.6526C244.825 38.7245 257.07 27.7033 272.153 19.3404C281.472 14.1136 286.161 11.545 295.57 6.40777C310.683 -1.83568 334.099 -2.25385 347.569 5.90001L349.003 6.79604C362.473 14.9798 375.167 31.4069 377.138 42.8163C379.109 54.2258 371.642 68.8908 360.532 75.4019C349.421 81.913 335.532 98.4298 329.589 111.9C323.645 125.37 314.984 135.137 310.235 133.793C305.486 132.449 296.854 124.922 290.97 117.396Z" fill="url(#paint2_radial_0_1)"/>
<path d="M1076.73 177.22C1087.12 174.92 1093.48 169.753 1091 165.034C1088.52 160.315 1074.9 153.505 1060.54 150.489L1058.9 150.16C1044.53 147.173 1029.03 139.975 1024.64 133.464C1020.25 126.953 1004.72 115.544 990.021 108.137L974.49 100.461C959.556 93.1729 935.304 86.4228 920.34 85.8553L913.859 85.6463C898.925 85.2281 879.87 76.686 871.775 66.083C863.681 55.48 844.267 43.5927 828.617 40.3371C809.979 36.4245 800.631 34.6324 781.814 31.3768C766.014 28.6589 747.855 30.2419 741.493 34.6324C735.131 39.023 729.964 46.2808 729.964 50.6116C729.964 54.9424 723.154 60.0199 714.821 62.0509C706.488 64.0819 698.633 63.365 697.438 60.3185C696.244 57.272 686.298 53.897 674.978 52.9711C663.658 52.0452 651.353 51.2089 647.35 50.9401C643.348 50.6713 628.623 44.9666 614.496 38.3061C600.369 31.6456 580.746 31.1379 570.71 36.9621C560.675 42.7863 549.504 57.5409 545.89 69.5476C542.276 81.5544 541.619 96.757 544.427 103.268C547.234 109.779 554.462 115.215 560.495 115.215C563.351 115.301 566.161 114.48 568.522 112.87C570.883 111.26 572.673 108.945 573.637 106.255C574.397 103.575 575.695 101.079 577.451 98.917C579.207 96.7552 581.385 94.9736 583.852 93.6806C588.272 91.7691 592.543 100.461 593.35 112.975C593.505 119.49 591.801 125.913 588.436 131.494C585.072 137.075 580.187 141.581 574.354 144.485C563.124 149.354 552.939 147.681 551.744 140.662C550.549 133.643 545.263 127.073 540.036 126.087C534.809 125.101 530.568 130.866 530.568 138.9C530.493 142.941 529.289 146.881 527.094 150.274C524.898 153.668 521.798 156.38 518.143 158.105C510.897 161.066 504.772 166.241 500.641 172.889C497.798 178.859 497.276 185.672 499.177 192.005C501.178 196.963 497.564 201.114 491.143 201.204C484.721 201.294 480.779 209.955 482.392 220.379C484.004 230.803 490.575 239.345 496.967 239.285C500.056 239.287 503.066 238.307 505.562 236.488C508.059 234.668 509.912 232.102 510.855 229.16C511.637 226.339 513.376 223.878 515.774 222.2C518.172 220.521 521.079 219.73 523.997 219.961C530.409 220.344 536.782 218.737 542.246 215.361C546.249 212.374 552.819 214.824 556.852 220.827C560.884 226.83 562.825 236.298 561.212 241.734C559.599 247.17 562.586 249.291 567.783 246.304C572.98 243.317 575.31 233.909 572.92 225.397C570.531 216.884 570.501 208.671 572.92 207.207C575.34 205.744 581.881 211.926 587.496 220.976C593.111 230.026 602.668 235.163 608.642 232.177C614.615 229.19 623.815 232.684 629.041 239.703C634.268 246.722 637.524 257.773 636.329 264.195C635.134 270.616 623.337 279.128 610.076 282.952C596.814 286.775 579.79 286.804 572.144 282.802C564.498 278.8 556.314 270.138 553.895 263.627C551.475 257.116 540.305 251.381 529.075 250.904C517.844 250.426 498.341 260.431 485.767 273.035L473.133 285.64C460.588 298.214 449.239 317.777 448.133 329.157C447.028 340.536 443.982 351.498 441.593 353.439C439.203 355.38 437.202 365.894 437.202 376.766C437.202 387.637 445.057 404.781 454.675 414.877C464.292 424.972 483.975 433.514 498.401 433.693C512.827 433.872 528.955 437.218 534.242 441.22C539.528 445.222 544.068 456.751 544.456 466.757C544.845 476.762 550.131 487.843 556.135 491.338C562.138 494.832 565.633 513.947 563.841 533.839C563.631 536.109 563.512 537.244 563.303 539.514C561.451 559.496 563.542 582.374 567.932 590.289C572.323 598.204 576.624 615.348 577.43 628.34C578.237 641.333 587.765 653.817 598.606 655.878C609.448 657.939 627.13 648.381 637.942 634.762C648.754 621.142 657.266 597.487 656.878 582.195C656.49 566.903 662.374 547.967 669.96 540.111C677.546 532.256 684.058 510.991 684.476 492.831C684.894 474.672 691.375 451.524 698.961 441.459C706.548 431.393 711.715 417.296 710.52 410.068C709.326 402.84 700.216 394.328 690.27 391.132C680.324 387.936 671.812 378.826 671.394 370.971C670.778 362.399 668.037 354.116 663.419 346.868C658.906 339.612 656.631 331.187 656.878 322.646C657.266 314.76 659.865 308.309 662.672 308.309C665.48 308.309 673.335 317.628 680.115 328.918C686.895 340.208 692.062 354.544 691.704 360.876C691.345 367.208 693.914 373.6 697.498 375.003C701.082 376.407 713.149 370.583 724.379 362.19C735.609 353.797 737.76 334.622 729.426 319.181C721.093 303.739 720.138 290.627 727.276 290.269C734.414 289.911 741.553 294.331 743.136 300.096C744.719 305.86 752.813 316.463 761.056 323.571C768.965 330.473 777.609 336.482 786.832 341.492C792.805 344.24 796.897 354.455 796.121 364.221C795.344 373.988 804.006 391.998 815.355 403.766C826.705 415.534 840.355 410.486 845.731 393.282C848.061 385.786 849.255 382.022 851.704 374.585C857.081 357.531 866.638 344.718 872.612 346.032C878.585 347.346 887.277 358.785 891.518 371.509C895.759 384.232 902.629 398.091 906.84 402.422C911.051 406.753 914.158 403.378 913.799 394.985C913.441 386.592 914.665 379.603 916.547 379.484C919.606 380.077 922.327 381.805 924.163 384.322C926.463 387.1 933.601 385.547 940.053 381.007C946.504 376.467 951.402 360.697 951.044 345.793C950.686 330.889 954.986 317.329 960.631 315.925C966.276 314.522 972.399 306.965 974.251 299.707C976.103 292.449 973.086 280.711 967.441 273.603C961.796 266.494 959.974 255.503 963.349 249.5C966.724 243.496 971.951 238.897 974.938 239.255C977.925 239.614 985.541 228.891 991.813 215.988C996.741 205.893 999.19 201.055 1004.09 191.288C1010.33 178.953 1018.46 171.874 1022.01 174.98C1026.19 179.307 1028.57 185.062 1028.67 191.079C1028.66 193.924 1029.24 196.74 1030.39 199.344C1031.54 201.948 1033.22 204.281 1035.33 206.192C1038.97 208.76 1045.52 204.041 1049.88 196.097C1054.24 188.152 1066.33 179.52 1076.73 177.22Z" fill="url(#paint3_radial_0_1)"/>
<path d="M979.537 470.192C976.031 470.025 972.683 468.678 970.039 466.369C968.158 464.368 961.407 464.636 955.105 466.996C947.879 469.94 941.657 474.908 937.185 481.302C932.273 488.404 926.217 494.641 919.264 499.761C912.783 504.33 908.094 518.069 908.87 530.196C909.647 542.322 915.262 551.103 921.355 549.49C927.448 547.877 936.767 545.607 942.053 544.204C947.269 542.815 952.791 543.118 957.823 545.07C961.198 546.922 971.055 548.057 979.627 547.19C984.507 546.397 989.177 544.628 993.359 541.991C997.542 539.353 1001.15 535.9 1003.97 531.838C1009 523.657 1011.99 514.387 1012.69 504.808C1012.69 497.401 1008.78 483.901 1003.97 474.582C999.16 465.264 993.067 456.662 990.469 456.094C987.87 455.527 985.75 458.364 985.75 462.605C985.844 463.512 985.759 464.429 985.497 465.302C985.235 466.176 984.803 466.989 984.226 467.694C983.648 468.4 982.936 468.984 982.131 469.412C981.327 469.841 980.445 470.106 979.537 470.192Z" fill="url(#paint4_radial_0_1)"/>
<path d="M569.056 603.275L403 603.53C403 603.53 403 592.918 425.857 590.804C425.857 590.804 446.676 544.34 478.571 550.576C498.446 554.428 508.638 581.677 508.638 581.677C508.638 581.677 523.627 560.198 535.617 564.335C547.608 568.472 554.787 591.314 554.787 591.314C554.787 591.314 567.168 597.279 569.056 603.275Z" fill="white"/>
<g filter="url(#filter6_b_0_1)">
<path d="M519.248 537.248C633.985 422.511 633.985 236.486 519.248 121.749C404.511 7.01252 218.486 7.01252 103.749 121.749C-10.9875 236.486 -10.9875 422.511 103.749 537.248C218.486 651.985 404.511 651.985 519.248 537.248Z" fill="url(#paint5_radial_0_1)" fill-opacity="0.18"/>
<path d="M518.187 122.81C632.338 236.961 632.338 422.036 518.187 536.187C404.036 650.338 218.961 650.338 104.81 536.187C-9.341 422.036 -9.341 236.961 104.81 122.81C218.961 8.65897 404.036 8.65897 518.187 122.81Z" stroke="url(#paint6_radial_0_1)" stroke-width="3"/>
</g>
<path d="M598.493 392.645L593.924 382.534L577.163 380.706L563.727 372.306L549.688 364.742L538.022 348.273L521.864 334.487L513.814 357.567L522.33 370.887L536.661 378.839L543.894 393.811L555.871 403.028L568.705 408.531L564.33 423.969L559.838 440.652L556.591 459.124L538.722 457.997L525.461 468.36L510.8 473.649L495.925 469.08L483.092 457.608L467.342 446.797L450.017 437.619L440.295 421.247L433.976 407.52L425.984 393.111L425.693 376.778L425.284 360.465L418.129 346.348L412.607 369.973L406.987 384.303L407.318 400.092L401.31 414.831L393.921 432.33L390.032 449.83L400.298 456.15L416.709 457.394L403.915 473.066L392.248 487.571L379.863 501.591L364.307 513.529L346.496 521.015L329.308 529.688L309.436 533.226L295.183 547.732L275.292 551.057L257.422 560.157L239.009 567.351L219.234 567.545L205.429 560.604L185.79 560.351L194.326 545.146L198.993 531.69L204.826 512.518L207.898 492.102L211.787 472.444L217.192 456.072L223.512 439.35L217.678 421.189L226.078 403.806L216.551 388.97L205.954 376.176L192.343 365.676L183.826 351.365L177.351 336.801L172.607 321.362L170.196 304.64L164.499 286.888L179.879 272.363L189.057 254.688L205.176 244.577L220.614 246.074L238.114 248.135L255.381 251.558L274.261 248.485L288.922 263.827L307.841 269.855L324.699 279.693L341.441 289.785L358.377 299.838L370.354 316.676L388.632 324.94L405.704 322.996L422.29 324.532L438.623 328.071L458.223 334.312L452.039 310.318L445.895 290.213L433.451 283.991L423.262 270.127L408.601 264.624L394.99 258.441L393.26 243.683L388.729 229.022L385.19 213.466L366.446 204.6L346.457 200.264L328.569 196.842L315.502 206.564L298.352 207.769L279.472 210.647L258.083 192.097L271.033 179.614L270.586 162.562L279.317 149.631L299.869 140.395L314.063 124.529L330.669 128.048L346.36 137.965H365.377L383.401 130.848L402.223 133.512L417.079 125.17L427.443 112.609L438.817 101.371L456.142 98.9012L472.475 106.951H489.625L505.589 110.179L510.314 113.095C548.172 147.913 576.238 192.05 591.711 241.102C607.184 290.154 609.522 342.406 598.493 392.645V392.645Z" fill="url(#paint7_radial_0_1)"/>
<path opacity="0.2" d="M333.488 548.062L324.894 560.351L306.072 564.434L291.314 569.762L312.41 576.723H330.63L345.777 565.27L347.818 556.248L333.488 548.062Z" fill="#1053FF"/>
<path opacity="0.2" d="M113.38 545.962L113.03 546.137C76.6263 512.757 49.2103 470.75 33.3086 423.989V423.989L31.8503 416.347L29.4197 411.603C14.7301 361.479 13.7498 308.334 26.5809 257.702L30.1392 270.613L34.4169 288.735L45.2473 305.69L44.5668 325.504L53.8028 342.829L55.7472 361.729L56.9527 377.284L54.7166 392.684L45.7529 407.053L51.3917 425.7L60.5499 441.78L66.1887 455.702L68.5415 474.874L78.2636 488.252L82.1524 504.663L93.119 517.438L100.702 531.963L113.38 545.962Z" fill="#1053FF"/>
<path opacity="0.2" d="M354.06 49.26L342.549 54.0238L327.85 62.4626L312.897 70.3958L297.672 77.4929L280.795 80.2735L264.948 85.3873L249.042 80.0985L232.554 76.6568L216.706 70.6291L200.49 72.3208L183.749 79.6901L170.138 92.5816L159.599 108.934L140.66 115.837L130.685 132.481L119.874 146.189L117.152 164.311L104.28 177.378L98.8163 194.022L87.4803 207.847L82.9693 223.402L68.3278 221.263L52.228 218.211L41.1837 214.477C66.3245 155.389 110.126 106.161 165.89 74.3195C221.654 42.4784 286.312 29.7769 349.977 38.1573L354.06 49.26Z" fill="#1053FF"/>
<path d="M506.907 66.7541L394 66.919C394 66.919 404.642 56.9817 409.378 56.9817C414.114 56.9817 427.874 23.6625 445.545 25.0414C463.216 26.4203 472.599 51.2111 472.599 51.2111C472.599 51.2111 494.062 44.4514 506.907 66.7541Z" fill="white"/>
<path d="M127.465 119.863L30.9094 120.013C30.9094 120.013 35.7057 113.748 40.9966 112.954C40.9966 112.954 51.2337 82.3026 68.4703 82.0478C84.4929 81.8229 90.9529 100.858 90.9529 100.858C90.9529 100.858 98.3572 92.3148 105.462 96.2118C112.566 100.109 116.583 111.2 116.583 111.2C116.583 111.2 124.572 115.562 127.465 119.863Z" fill="white"/>
<path d="M156.106 319.351C102.592 307.4 51.0438 287.921 3.00001 261.495C3.00001 261.39 2.91008 253.926 23.2943 262.799C23.2943 262.694 41.8199 238.398 71.2571 254.526C89.5579 264.493 99.1055 287.5 99.0905 287.5C99.0756 287.5 113.12 276.364 124.466 282.584C135.812 288.804 142.587 307.255 142.587 307.27C142.587 307.285 154.308 314.569 156.106 319.351Z" fill="white"/>
<path d="M207.771 587.609C171.074 585.562 134.655 580.042 99 571.122C99 571.122 109.132 566.31 113.674 567.285C118.215 568.259 131.39 546.691 148.417 550.438C165.444 554.185 174.526 573.25 174.526 573.295C174.526 573.34 195.315 570.597 207.771 587.609Z" fill="#EBEBEB"/>
<g filter="url(#filter7_f_0_1)">
<path d="M56.891 315.19C22.6341 256.552 176.715 204.304 258.037 185.51C285.833 148.673 349.539 75 381.993 75C422.56 75 497.497 168.031 480.594 206.935C463.691 245.839 351.004 270.647 530.739 347.892C710.475 425.136 436.082 496.742 381.993 549.177C327.903 601.613 277.194 481.518 258.037 400.327C238.88 319.136 99.712 388.487 56.891 315.19Z" fill="black"/>
</g>
<path d="M310.95 313.481L203.182 375.704L310.95 437.926L418.717 375.704L310.95 313.481Z" fill="#252561"/>
<path d="M353.135 413.572L245.367 351.349L266.926 338.89L374.693 401.113L353.135 413.572Z" fill="#37474F"/>
<path d="M203.182 375.704V475.255L310.95 537.478V437.927L203.182 375.704Z" fill="#282F73"/>
<path d="M311 437.223V536.774L418.767 474.649V375L311 437.223Z" fill="#434993"/>
<path d="M374.693 401.113V420.562L372.412 420.12L370.376 423.088L368.071 422.622L366.084 425.565L363.779 425.099L361.768 428.067L359.462 427.601L357.451 430.569L355.121 430.103L353.134 433.046V413.572L374.693 401.113Z" fill="#263238"/>
<path d="M310.95 437.926L313.084 533.578L392.009 490.682L310.95 537.478V437.926Z" fill="#535BB6"/>
<g opacity="0.8">
<path opacity="0.8" d="M340.111 510.573C340.035 510.573 339.96 510.557 339.89 510.527C339.82 510.497 339.756 510.454 339.704 510.399C339.651 510.344 339.61 510.279 339.583 510.207C339.556 510.136 339.544 510.06 339.547 509.984V496.985C339.544 496.909 339.556 496.833 339.583 496.762C339.61 496.69 339.651 496.625 339.704 496.57C339.756 496.515 339.82 496.471 339.89 496.442C339.96 496.412 340.035 496.396 340.111 496.396C340.267 496.396 340.417 496.459 340.528 496.569C340.638 496.679 340.7 496.829 340.7 496.985V510.107C340.672 510.241 340.597 510.36 340.49 510.446C340.382 510.531 340.248 510.576 340.111 510.573V510.573Z" fill="white"/>
<path opacity="0.8" d="M338.419 501.498H338.198C338.056 501.438 337.943 501.325 337.883 501.183C337.824 501.041 337.822 500.881 337.879 500.738L339.964 495.955L342.245 498.628C342.299 498.681 342.342 498.744 342.372 498.813C342.401 498.883 342.416 498.958 342.416 499.033C342.416 499.109 342.401 499.183 342.372 499.253C342.342 499.322 342.299 499.385 342.245 499.438C342.133 499.536 341.989 499.59 341.84 499.59C341.691 499.59 341.547 499.536 341.436 499.438L340.332 498.162L339.008 501.228C338.944 501.324 338.856 501.399 338.752 501.447C338.648 501.495 338.532 501.512 338.419 501.498V501.498Z" fill="white"/>
<path opacity="0.8" d="M345.482 507.507C345.405 507.507 345.329 507.492 345.257 507.462C345.186 507.432 345.121 507.389 345.066 507.334C345.011 507.28 344.968 507.215 344.939 507.143C344.909 507.072 344.894 506.995 344.894 506.918V493.919C344.894 493.763 344.956 493.613 345.066 493.503C345.177 493.393 345.326 493.331 345.482 493.331C345.638 493.331 345.788 493.393 345.899 493.503C346.009 493.613 346.071 493.763 346.071 493.919V506.918C346.071 507.074 346.009 507.224 345.899 507.334C345.788 507.445 345.638 507.507 345.482 507.507V507.507Z" fill="white"/>
<path opacity="0.8" d="M343.79 498.432H343.545C343.474 498.403 343.411 498.36 343.358 498.305C343.304 498.251 343.263 498.186 343.235 498.115C343.208 498.044 343.195 497.968 343.198 497.892C343.2 497.816 343.218 497.741 343.251 497.672L345.311 492.914L347.616 495.563C347.67 495.615 347.713 495.678 347.743 495.748C347.772 495.817 347.787 495.892 347.787 495.967C347.787 496.043 347.772 496.118 347.743 496.187C347.713 496.257 347.67 496.319 347.616 496.372C347.561 496.427 347.496 496.47 347.425 496.5C347.353 496.53 347.277 496.545 347.199 496.545C347.122 496.545 347.045 496.53 346.973 496.5C346.902 496.47 346.837 496.427 346.782 496.372L345.703 495.097L344.354 498.187C344.296 498.28 344.211 498.354 344.11 498.398C344.01 498.442 343.898 498.454 343.79 498.432V498.432Z" fill="white"/>
</g>
<g opacity="0.8">
<path opacity="0.8" d="M324.66 519.377C324.439 519.378 324.22 519.328 324.022 519.23C323.794 519.079 323.61 518.87 323.49 518.624C323.369 518.378 323.316 518.105 323.335 517.832V516.238C323.332 516.162 323.344 516.086 323.371 516.014C323.398 515.943 323.439 515.878 323.492 515.823C323.544 515.768 323.608 515.724 323.678 515.694C323.748 515.665 323.823 515.649 323.899 515.649C324.056 515.649 324.205 515.711 324.316 515.822C324.426 515.932 324.488 516.082 324.488 516.238V517.832C324.449 517.952 324.449 518.081 324.488 518.2C324.488 518.2 324.684 518.2 324.88 518.2C325.239 517.867 325.522 517.459 325.708 517.006C325.895 516.553 325.98 516.065 325.96 515.576V508.929C325.959 508.853 325.975 508.778 326.005 508.707C326.035 508.637 326.078 508.574 326.133 508.521C326.188 508.469 326.254 508.428 326.325 508.401C326.396 508.374 326.472 508.362 326.548 508.365C326.698 508.365 326.841 508.424 326.947 508.53C327.053 508.636 327.112 508.78 327.112 508.929V515.576C327.142 516.267 327.009 516.956 326.723 517.587C326.438 518.217 326.008 518.772 325.469 519.206C325.215 519.321 324.939 519.38 324.66 519.377V519.377Z" fill="white"/>
<path opacity="0.8" d="M318.553 514.031V513.025C318.684 510.456 319.419 507.953 320.697 505.721C321.975 503.488 323.761 501.587 325.911 500.173C326.682 499.522 327.635 499.124 328.64 499.034C329.645 498.943 330.654 499.166 331.528 499.67C332.403 500.174 333.1 500.936 333.526 501.851C333.951 502.766 334.084 503.791 333.906 504.784V505.201L318.553 514.031ZM329.418 500.296C328.391 500.345 327.395 500.658 326.524 501.204C324.682 502.413 323.121 504.005 321.949 505.872C320.777 507.738 320.02 509.835 319.73 512.02L332.778 504.49C332.821 503.757 332.68 503.025 332.367 502.361C332.054 501.697 331.58 501.122 330.988 500.689C330.504 500.433 329.965 500.298 329.418 500.296V500.296Z" fill="white"/>
</g>
<path d="M354.067 413.033L246.275 350.81L267.833 338.375L375.625 400.598L354.067 413.033Z" fill="#FF10BC"/>
<path d="M375.625 400.598L375.6 419.458L373.319 419.017L371.308 421.96L369.003 421.519L367.016 424.462L364.711 423.996L362.675 426.963L360.37 426.497L358.359 429.465L356.053 428.999L354.066 431.942V413.033L375.625 400.598Z" fill="#FF10BC"/>
<path opacity="0.5" d="M246.275 350.81L267.833 339.798L375.625 400.598L267.833 338.375L246.275 350.81Z" fill="white"/>
<path d="M320.834 224.574H300.477V239.388H320.834V224.574Z" fill="#090E3E"/>
<path d="M320.834 239.363L333.612 226.119V217.29L320.834 224.672V239.363Z" fill="#37474F"/>
<path d="M300.477 239.363L287.724 226.119V217.29L300.477 224.672V239.363Z" fill="#37474F"/>
<path d="M310.95 438.981C310.653 438.975 310.369 438.854 310.159 438.644C309.949 438.433 309.828 438.15 309.822 437.853L309.552 231.834C309.549 231.687 309.575 231.541 309.629 231.404C309.683 231.267 309.764 231.143 309.866 231.038C309.969 230.933 310.092 230.849 310.227 230.792C310.363 230.735 310.508 230.706 310.656 230.706V230.706C310.803 230.703 310.949 230.729 311.085 230.783C311.222 230.837 311.347 230.917 311.452 231.02C311.557 231.123 311.64 231.246 311.697 231.381C311.754 231.517 311.784 231.662 311.784 231.81L312.078 437.828C312.072 438.125 311.951 438.409 311.741 438.619C311.53 438.829 311.247 438.95 310.95 438.956V438.981Z" fill="#EBEBEB"/>
<path d="M418.717 376.832C418.526 376.829 418.338 376.777 418.171 376.683C418.004 376.589 417.863 376.455 417.761 376.292L327.432 228.915C327.337 228.79 327.269 228.646 327.234 228.493C327.198 228.34 327.194 228.181 327.223 228.027C327.252 227.872 327.314 227.726 327.403 227.596C327.492 227.467 327.607 227.357 327.741 227.275C327.875 227.192 328.024 227.139 328.18 227.118C328.336 227.097 328.494 227.108 328.645 227.152C328.796 227.195 328.936 227.27 329.057 227.371C329.177 227.472 329.275 227.597 329.345 227.738L419.674 375.213C419.754 375.338 419.808 375.478 419.833 375.624C419.857 375.77 419.852 375.92 419.818 376.064C419.784 376.208 419.721 376.344 419.633 376.463C419.545 376.582 419.434 376.683 419.306 376.758C419.119 376.83 418.917 376.855 418.717 376.832Z" fill="#EBEBEB"/>
<path d="M202.79 376.832C202.582 376.828 202.379 376.768 202.202 376.66C201.978 376.501 201.822 376.266 201.763 375.998C201.704 375.731 201.747 375.451 201.883 375.213L292.212 227.836C292.281 227.695 292.379 227.57 292.5 227.469C292.62 227.368 292.761 227.293 292.912 227.25C293.063 227.206 293.221 227.195 293.377 227.216C293.533 227.237 293.682 227.291 293.816 227.373C293.95 227.455 294.065 227.565 294.154 227.694C294.243 227.824 294.304 227.97 294.333 228.125C294.362 228.279 294.359 228.438 294.323 228.591C294.287 228.744 294.22 228.888 294.125 229.013L203.796 376.39C203.678 376.542 203.525 376.661 203.349 376.739C203.173 376.816 202.981 376.848 202.79 376.832V376.832Z" fill="#EBEBEB"/>
<path d="M420.164 174.419C412.488 174.419 410.06 124.655 410.06 124.655H430.269C430.269 124.655 427.816 174.419 420.164 174.419Z" fill="#0C1045"/>
<path d="M413.076 120.535C415.288 119.411 417.733 118.824 420.214 118.824C422.694 118.824 425.14 119.411 427.351 120.535C431.299 122.791 431.299 126.495 427.351 128.776C425.14 129.9 422.694 130.486 420.214 130.486C417.733 130.486 415.288 129.9 413.076 128.776C409.128 126.495 409.128 122.791 413.076 120.535Z" fill="#090E3E"/>
<path d="M201.687 174.419C209.339 174.419 211.767 124.655 211.767 124.655H191.582C191.582 124.655 194.034 174.419 201.687 174.419" fill="#0C1045"/>
<path d="M208.824 120.535C206.613 119.411 204.167 118.824 201.687 118.824C199.206 118.824 196.761 119.411 194.549 120.535C190.601 122.816 190.601 126.495 194.549 128.776C196.761 129.9 199.206 130.486 201.687 130.486C204.167 130.486 206.613 129.9 208.824 128.776C212.748 126.495 212.748 122.816 208.824 120.535Z" fill="#090E3E"/>
<path d="M203.575 146.63L280.071 208.461L203.575 270.291L211.227 274.705L310.655 226.119L410.108 274.705L417.761 270.291L341.264 208.461L417.761 146.63L410.108 142.191L310.655 190.777L211.202 142.191L203.575 146.63Z" fill="#E0E0E0"/>
<path d="M211.227 265.876L310.655 208.461L410.108 265.876L417.761 261.462L341.264 190.778L417.761 137.777L410.108 133.362L310.655 173.119L211.202 133.362L203.575 137.777L280.071 190.778L203.575 261.462L211.227 265.876Z" fill="#F5F5F5"/>
<path d="M410.108 265.876V274.706L417.761 270.291V261.462L410.108 265.876Z" fill="#E0E0E0"/>
<path d="M310.656 208.461V226.12L410.109 274.706V265.876L310.656 208.461Z" fill="#EBEBEB"/>
<path d="M203.575 137.777L280.071 190.777L268.054 200.244L203.575 146.631V137.777Z" fill="#EBEBEB"/>
<path d="M341.264 190.777L353.282 200.244L417.761 146.631V137.777L341.264 190.777Z" fill="#E0E0E0"/>
<path d="M324.513 182.708H296.823C296.024 182.708 295.376 183.356 295.376 184.156V197.424C295.376 198.223 296.024 198.871 296.823 198.871H324.513C325.312 198.871 325.96 198.223 325.96 197.424V184.156C325.96 183.356 325.312 182.708 324.513 182.708Z" fill="#FF10BC"/>
<path d="M211.227 265.876V274.706L203.575 270.291V261.462L211.227 265.876Z" fill="#EBEBEB"/>
<path d="M418.889 309.214C411.213 309.214 408.784 259.426 408.784 259.426H428.969C428.969 259.426 426.517 309.214 418.889 309.214Z" fill="#0C1045"/>
<path d="M411.752 255.306C413.963 254.181 416.409 253.595 418.889 253.595C421.37 253.595 423.815 254.181 426.026 255.306C429.975 257.587 429.975 261.29 426.026 263.546C423.815 264.671 421.37 265.257 418.889 265.257C416.409 265.257 413.963 264.671 411.752 263.546C407.902 261.29 407.902 257.488 411.752 255.306Z" fill="#090E3E"/>
<path d="M202.447 309.214C210.124 309.214 212.552 259.426 212.552 259.426H192.342C192.342 259.426 194.795 309.214 202.447 309.214Z" fill="#0C1045"/>
<path d="M209.584 255.306C207.373 254.181 204.927 253.595 202.447 253.595C199.966 253.595 197.521 254.181 195.31 255.306C191.361 257.587 191.361 261.29 195.31 263.546C197.521 264.671 199.966 265.257 202.447 265.257C204.927 265.257 207.373 264.671 209.584 263.546C213.533 261.29 213.533 257.488 209.584 255.306Z" fill="#090E3E"/>
<path opacity="0.3" d="M458.278 234.311L418.889 257.047L379.501 234.311C401.231 221.754 436.499 221.754 458.278 234.311Z" fill="#FF10BC"/>
<path opacity="0.1" d="M458.278 279.783L418.889 257.047L458.278 234.311C480.008 246.869 480.008 267.299 458.278 279.783Z" fill="#FF10BC"/>
<path opacity="0.3" d="M458.278 279.782C436.499 292.34 401.231 292.34 379.501 279.782L418.889 257.047L458.278 279.782Z" fill="#FF10BC"/>
<path opacity="0.1" d="M418.889 257.047L379.5 279.783C357.77 267.225 357.77 246.869 379.5 234.311L418.889 257.047Z" fill="#FF10BC"/>
<path d="M424.702 259.941V257.488H422.789C421.568 256.918 420.237 256.623 418.889 256.623C417.542 256.623 416.211 256.918 414.99 257.488H413.077V259.941C413.11 260.465 413.285 260.97 413.583 261.402C413.881 261.834 414.291 262.176 414.769 262.393C416.044 263.034 417.451 263.368 418.877 263.368C420.304 263.368 421.711 263.034 422.985 262.393C423.468 262.18 423.883 261.839 424.185 261.406C424.488 260.974 424.667 260.467 424.702 259.941V259.941Z" fill="#FF10BC"/>
<path opacity="0.3" d="M424.702 259.941V257.488H422.789C421.568 256.918 420.237 256.623 418.889 256.623C417.542 256.623 416.211 256.918 414.99 257.488H413.077V259.941C413.11 260.465 413.285 260.97 413.583 261.402C413.881 261.834 414.291 262.176 414.769 262.393C416.044 263.034 417.451 263.368 418.877 263.368C420.304 263.368 421.711 263.034 422.985 262.393C423.468 262.18 423.883 261.839 424.185 261.406C424.488 260.974 424.667 260.467 424.702 259.941V259.941Z" fill="black"/>
<path d="M422.985 255.036C421.71 254.395 420.303 254.061 418.877 254.061C417.45 254.061 416.043 254.395 414.769 255.036C414.238 255.168 413.768 255.475 413.431 255.906C413.095 256.337 412.912 256.868 412.912 257.415C412.912 257.961 413.095 258.492 413.431 258.923C413.768 259.354 414.238 259.661 414.769 259.794C416.043 260.434 417.45 260.768 418.877 260.768C420.303 260.768 421.71 260.434 422.985 259.794C423.515 259.661 423.986 259.354 424.322 258.923C424.659 258.492 424.841 257.961 424.841 257.415C424.841 256.868 424.659 256.337 424.322 255.906C423.986 255.475 423.515 255.168 422.985 255.036V255.036Z" fill="#FF10BC"/>
<path d="M420.925 256.286C420.292 255.971 419.596 255.807 418.889 255.807C418.183 255.807 417.486 255.971 416.853 256.286C415.725 256.948 415.725 258.003 416.853 258.739C417.482 259.066 418.18 259.236 418.889 259.236C419.598 259.236 420.296 259.066 420.925 258.739C422.053 258.003 422.053 256.948 420.925 256.286Z" fill="#090E3E"/>
<path opacity="0.3" d="M241.836 234.311L202.447 257.047L163.058 234.311C184.714 221.754 220.056 221.754 241.836 234.311Z" fill="#FF10BC"/>
<path opacity="0.1" d="M241.836 279.783L202.447 257.047L241.836 234.311C263.566 246.869 263.566 267.299 241.836 279.783Z" fill="#FF10BC"/>
<path opacity="0.3" d="M241.836 279.782C220.056 292.34 184.813 292.34 163.058 279.782L202.447 257.047L241.836 279.782Z" fill="#FF10BC"/>
<path opacity="0.1" d="M202.447 257.047L163.058 279.783C141.328 267.225 141.328 246.869 163.058 234.311L202.447 257.047Z" fill="#FF10BC"/>
<path d="M208.259 259.941V257.488H206.346C205.125 256.918 203.794 256.623 202.447 256.623C201.099 256.623 199.768 256.918 198.547 257.488H196.634V259.941C196.669 260.467 196.848 260.974 197.151 261.406C197.453 261.839 197.868 262.18 198.351 262.393C199.625 263.034 201.032 263.368 202.459 263.368C203.885 263.368 205.292 263.034 206.567 262.393C207.045 262.176 207.455 261.834 207.753 261.402C208.051 260.97 208.226 260.465 208.259 259.941V259.941Z" fill="#FF10BC"/>
<path opacity="0.3" d="M208.259 259.941V257.488H206.346C205.125 256.918 203.794 256.623 202.447 256.623C201.099 256.623 199.768 256.918 198.547 257.488H196.634V259.941C196.669 260.467 196.848 260.974 197.151 261.406C197.453 261.839 197.868 262.18 198.351 262.393C199.625 263.034 201.032 263.368 202.459 263.368C203.885 263.368 205.292 263.034 206.567 262.393C207.045 262.176 207.455 261.834 207.753 261.402C208.051 260.97 208.226 260.465 208.259 259.941V259.941Z" fill="black"/>
<path d="M206.567 255.036C205.293 254.395 203.886 254.061 202.459 254.061C201.033 254.061 199.626 254.395 198.351 255.036C197.821 255.168 197.35 255.475 197.014 255.906C196.677 256.337 196.495 256.868 196.495 257.415C196.495 257.961 196.677 258.492 197.014 258.923C197.35 259.354 197.821 259.661 198.351 259.794C199.626 260.434 201.033 260.768 202.459 260.768C203.886 260.768 205.293 260.434 206.567 259.794C207.098 259.661 207.568 259.354 207.905 258.923C208.241 258.492 208.424 257.961 208.424 257.415C208.424 256.868 208.241 256.337 207.905 255.906C207.568 255.475 207.098 255.168 206.567 255.036Z" fill="#FF10BC"/>
<path d="M204.482 256.286C203.85 255.971 203.153 255.807 202.447 255.807C201.74 255.807 201.043 255.971 200.411 256.286C199.283 256.948 199.283 258.003 200.411 258.739C201.04 259.066 201.738 259.236 202.447 259.236C203.155 259.236 203.854 259.066 204.482 258.739C205.611 258.003 205.611 256.948 204.482 256.286Z" fill="#090E3E"/>
<path opacity="0.3" d="M459.602 99.418L420.165 122.154L380.923 99.418C402.579 86.8607 437.823 86.8607 459.602 99.418Z" fill="#FF10BC"/>
<path opacity="0.1" d="M459.602 144.889L420.164 122.154L459.553 99.418C481.332 111.975 481.332 132.405 459.602 144.889Z" fill="#FF10BC"/>
<path opacity="0.3" d="M459.602 144.889C437.823 157.447 402.579 157.447 380.824 144.889L420.164 122.154L459.602 144.889Z" fill="#FF10BC"/>
<path opacity="0.1" d="M420.165 122.154L380.923 144.889C359.193 132.332 359.193 111.975 380.923 99.418L420.165 122.154Z" fill="#FF10BC"/>
<path d="M426.026 125.048V122.595H424.113C422.892 122.026 421.561 121.73 420.214 121.73C418.866 121.73 417.535 122.026 416.314 122.595H414.401V125.048C414.436 125.574 414.615 126.081 414.918 126.513C415.22 126.946 415.635 127.287 416.118 127.501C417.392 128.141 418.799 128.475 420.226 128.475C421.652 128.475 423.059 128.141 424.334 127.501C424.812 127.284 425.222 126.941 425.52 126.509C425.818 126.077 425.993 125.572 426.026 125.048V125.048Z" fill="#FF10BC"/>
<path opacity="0.3" d="M426.026 125.048V122.595H424.113C422.892 122.026 421.561 121.73 420.214 121.73C418.866 121.73 417.535 122.026 416.314 122.595H414.401V125.048C414.436 125.574 414.615 126.081 414.918 126.513C415.22 126.946 415.635 127.287 416.118 127.501C417.392 128.141 418.799 128.475 420.226 128.475C421.652 128.475 423.059 128.141 424.334 127.501C424.812 127.284 425.222 126.941 425.52 126.509C425.818 126.077 425.993 125.572 426.026 125.048V125.048Z" fill="black"/>
<path d="M424.334 120.143C423.063 119.49 421.655 119.15 420.226 119.15C418.797 119.15 417.389 119.49 416.118 120.143C415.598 120.284 415.14 120.592 414.813 121.02C414.486 121.447 414.308 121.971 414.308 122.509C414.308 123.048 414.486 123.571 414.813 123.999C415.14 124.427 415.598 124.735 416.118 124.876C417.389 125.528 418.797 125.868 420.226 125.868C421.655 125.868 423.063 125.528 424.334 124.876C424.854 124.735 425.312 124.427 425.639 123.999C425.966 123.571 426.143 123.048 426.143 122.509C426.143 121.971 425.966 121.447 425.639 121.02C425.312 120.592 424.854 120.284 424.334 120.143Z" fill="#FF10BC"/>
<path d="M422.249 121.393C421.617 121.078 420.92 120.914 420.213 120.914C419.507 120.914 418.81 121.078 418.177 121.393C417.049 122.055 417.049 123.11 418.177 123.846C418.806 124.173 419.504 124.343 420.213 124.343C420.922 124.343 421.62 124.173 422.249 123.846C423.377 123.11 423.377 122.055 422.249 121.393Z" fill="#090E3E"/>
<path opacity="0.3" d="M241.124 99.418L201.76 122.154L162.371 99.418C184.028 86.8607 219.296 86.8607 241.124 99.418Z" fill="#FF10BC"/>
<path opacity="0.1" d="M241.125 144.889L201.76 122.154L241.125 99.418C262.806 111.975 262.806 132.405 241.125 144.889Z" fill="#FF10BC"/>
<path opacity="0.3" d="M241.124 144.889C219.37 157.447 184.101 157.447 162.371 144.889L201.76 122.154L241.124 144.889Z" fill="#FF10BC"/>
<path opacity="0.1" d="M201.686 122.154L162.298 144.889C140.567 132.405 140.567 111.975 162.298 99.418L201.686 122.154Z" fill="#FF10BC"/>
<path d="M207.499 125.048V122.595H205.586C204.365 122.026 203.034 121.73 201.686 121.73C200.339 121.73 199.008 122.026 197.787 122.595H195.874V125.048C195.907 125.572 196.082 126.077 196.38 126.509C196.678 126.941 197.088 127.284 197.566 127.501C198.841 128.141 200.248 128.475 201.674 128.475C203.101 128.475 204.508 128.141 205.782 127.501C206.265 127.287 206.68 126.946 206.982 126.513C207.285 126.081 207.464 125.574 207.499 125.048V125.048Z" fill="#FF10BC"/>
<path opacity="0.3" d="M207.499 125.048V122.595H205.586C204.365 122.026 203.034 121.73 201.686 121.73C200.339 121.73 199.008 122.026 197.787 122.595H195.874V125.048C195.907 125.572 196.082 126.077 196.38 126.509C196.678 126.941 197.088 127.284 197.566 127.501C198.841 128.141 200.248 128.475 201.674 128.475C203.101 128.475 204.508 128.141 205.782 127.501C206.265 127.287 206.68 126.946 206.982 126.513C207.285 126.081 207.464 125.574 207.499 125.048V125.048Z" fill="black"/>
<path d="M205.782 120.143C204.511 119.49 203.103 119.15 201.674 119.15C200.245 119.15 198.837 119.49 197.566 120.143C197.046 120.284 196.588 120.592 196.261 121.02C195.934 121.447 195.757 121.971 195.757 122.509C195.757 123.048 195.934 123.571 196.261 123.999C196.588 124.427 197.046 124.735 197.566 124.876C198.837 125.528 200.245 125.868 201.674 125.868C203.103 125.868 204.511 125.528 205.782 124.876C206.302 124.735 206.76 124.427 207.087 123.999C207.414 123.571 207.592 123.048 207.592 122.509C207.592 121.971 207.414 121.447 207.087 121.02C206.76 120.592 206.302 120.284 205.782 120.143V120.143Z" fill="#FF10BC"/>
<path d="M203.722 121.393C203.085 121.079 202.384 120.916 201.674 120.916C200.964 120.916 200.263 121.079 199.626 121.393C199.343 121.45 199.088 121.603 198.905 121.827C198.722 122.05 198.622 122.331 198.622 122.619C198.622 122.908 198.722 123.188 198.905 123.412C199.088 123.636 199.343 123.789 199.626 123.846C200.26 124.173 200.962 124.343 201.674 124.343C202.387 124.343 203.089 124.173 203.722 123.846C204.85 123.11 204.85 122.055 203.722 121.393Z" fill="#090E3E"/>
<path d="M313.942 188.815C312.918 188.302 311.789 188.034 310.644 188.034C309.498 188.034 308.369 188.302 307.345 188.815C306.958 188.957 306.624 189.214 306.388 189.552C306.152 189.89 306.025 190.292 306.025 190.704C306.025 191.116 306.152 191.518 306.388 191.856C306.624 192.194 306.958 192.451 307.345 192.592C308.358 193.113 309.48 193.385 310.619 193.385C311.758 193.385 312.88 193.113 313.893 192.592C314.282 192.456 314.62 192.203 314.86 191.868C315.101 191.534 315.232 191.133 315.238 190.721C315.243 190.309 315.122 189.905 314.89 189.564C314.658 189.223 314.327 188.962 313.942 188.815V188.815Z" fill="#FAFAFA"/>
<path d="M501.557 391.734C501.168 387.852 498.56 384 493.808 384C489.057 384 486.449 387.852 486.059 391.734C485.46 397.729 489.507 403.14 493.808 408.086C498.11 403.17 502.157 397.714 501.557 391.734ZM493.808 396.036C492.969 396.036 492.149 395.787 491.452 395.321C490.754 394.855 490.21 394.192 489.889 393.417C489.568 392.642 489.484 391.789 489.648 390.966C489.812 390.144 490.216 389.388 490.809 388.795C491.402 388.201 492.158 387.797 492.981 387.634C493.804 387.47 494.656 387.554 495.431 387.875C496.207 388.196 496.869 388.74 497.335 389.437C497.801 390.135 498.05 390.955 498.05 391.794C498.046 392.918 497.598 393.994 496.803 394.789C496.009 395.584 494.932 396.032 493.808 396.036V396.036Z" fill="#1053FF"/>
<path d="M72.8368 435.372C72.3272 430.171 68.745 425 62.4498 425C56.1547 425 52.5875 430.171 52.0779 435.372C51.2835 443.391 56.6943 450.645 62.4498 457.27C68.2354 450.615 73.6312 443.361 72.8368 435.372ZM62.4498 441.128C61.327 441.125 60.2302 440.789 59.298 440.163C58.3658 439.537 57.64 438.649 57.2123 437.61C56.7847 436.572 56.6743 435.43 56.8952 434.33C57.1161 433.229 57.6583 432.218 58.4533 431.425C59.2484 430.632 60.2606 430.092 61.3621 429.874C62.4636 429.656 63.605 429.77 64.6422 430.2C65.6793 430.631 66.5656 431.359 67.1891 432.293C67.8126 433.226 68.1454 434.324 68.1454 435.447C68.1375 436.951 67.5335 438.39 66.4658 439.45C65.3981 440.509 63.9538 441.102 62.4498 441.098V441.128Z" fill="#FFE710"/>
<path d="M506.837 187.357C506.327 182.171 502.745 177 496.45 177C490.155 177 486.587 182.171 486.078 187.357C485.283 195.376 490.694 202.645 496.45 209.27C502.235 202.705 507.661 195.376 506.837 187.357ZM496.45 193.127C495.323 193.127 494.221 192.793 493.284 192.167C492.347 191.54 491.617 190.65 491.186 189.608C490.756 188.566 490.644 187.42 490.865 186.315C491.086 185.21 491.63 184.195 492.428 183.399C493.226 182.603 494.242 182.062 495.348 181.844C496.454 181.626 497.599 181.741 498.64 182.174C499.68 182.608 500.569 183.34 501.193 184.279C501.817 185.217 502.148 186.32 502.145 187.447C502.145 188.194 501.998 188.934 501.712 189.624C501.425 190.314 501.005 190.941 500.476 191.469C499.947 191.997 499.319 192.415 498.628 192.699C497.937 192.984 497.197 193.129 496.45 193.127V193.127Z" fill="#10FFD4"/>
<path d="M81.5573 172.734C81.1676 168.852 78.5596 165 73.8083 165C69.0569 165 66.449 168.852 66.0593 172.734C65.4597 178.729 69.5066 184.14 73.8083 189.086C78.1099 184.14 82.1568 178.714 81.5573 172.734ZM73.8083 177.021C72.9693 177.021 72.1492 176.772 71.4517 176.306C70.7541 175.84 70.2105 175.177 69.8894 174.402C69.5684 173.627 69.4844 172.774 69.648 171.951C69.8117 171.129 70.2157 170.373 70.8089 169.78C71.4021 169.186 72.1579 168.782 72.9807 168.619C73.8035 168.455 74.6564 168.539 75.4315 168.86C76.2066 169.181 76.869 169.725 77.3351 170.422C77.8012 171.12 78.05 171.94 78.05 172.779C78.05 173.336 77.9403 173.888 77.7271 174.402C77.5139 174.917 77.2015 175.384 76.8076 175.778C76.4137 176.172 75.9461 176.485 75.4315 176.698C74.9169 176.911 74.3653 177.021 73.8083 177.021Z" fill="#1053FF"/>
<path d="M277.837 46.357C277.327 41.171 273.745 36 267.45 36C261.155 36 257.587 41.171 257.078 46.357C256.283 54.3758 261.694 61.6301 267.45 68.255C273.22 61.6301 278.631 54.3758 277.837 46.357ZM267.45 52.1275C266.323 52.1275 265.222 51.7935 264.286 51.1676C263.349 50.5418 262.619 49.6522 262.188 48.6115C261.757 47.5708 261.644 46.4256 261.864 45.3208C262.083 44.2159 262.626 43.2011 263.422 42.4045C264.219 41.608 265.234 41.0655 266.339 40.8458C267.444 40.626 268.589 40.7388 269.629 41.1699C270.67 41.601 271.56 42.331 272.186 43.2676C272.811 44.2042 273.145 45.3054 273.145 46.4319C273.145 47.1799 272.998 47.9205 272.712 48.6115C272.426 49.3025 272.006 49.9304 271.477 50.4593C270.948 50.9882 270.32 51.4077 269.629 51.694C268.938 51.9802 268.198 52.1275 267.45 52.1275V52.1275Z" fill="#FF10BC"/>
</g>
<defs>
<filter id="filter0_f_0_1" x="-158.29" y="-310.286" width="1217" height="1239.98" filterUnits="userSpaceOnUse" color-interpolation-filters="sRGB">
<feFlood flood-opacity="0" result="BackgroundImageFix"/>
<feBlend mode="normal" in="SourceGraphic" in2="BackgroundImageFix" result="shape"/>
<feGaussianBlur stdDeviation="180" result="effect1_foregroundBlur_0_1"/>
</filter>
<filter id="filter1_f_0_1" x="-425.567" y="-95.5189" width="1130.47" height="1114.42" filterUnits="userSpaceOnUse" color-interpolation-filters="sRGB">
<feFlood flood-opacity="0" result="BackgroundImageFix"/>
<feBlend mode="normal" in="SourceGraphic" in2="BackgroundImageFix" result="shape"/>
<feGaussianBlur stdDeviation="180" result="effect1_foregroundBlur_0_1"/>
</filter>
<filter id="filter2_f_0_1" x="-951.567" y="648.481" width="1130.47" height="1114.42" filterUnits="userSpaceOnUse" color-interpolation-filters="sRGB">
<feFlood flood-opacity="0" result="BackgroundImageFix"/>
<feBlend mode="normal" in="SourceGraphic" in2="BackgroundImageFix" result="shape"/>
<feGaussianBlur stdDeviation="180" result="effect1_foregroundBlur_0_1"/>
</filter>
<filter id="filter4_f_0_1" x="-558.189" y="640.46" width="738.287" height="644.545" filterUnits="userSpaceOnUse" color-interpolation-filters="sRGB">
<feFlood flood-opacity="0" result="BackgroundImageFix"/>
<feBlend mode="normal" in="SourceGraphic" in2="BackgroundImageFix" result="shape"/>
<feGaussianBlur stdDeviation="108.5" result="effect1_foregroundBlur_0_1"/>
</filter>
<filter id="filter5_f_0_1" x="-453.072" y="-259.438" width="1271" height="1101.25" filterUnits="userSpaceOnUse" color-interpolation-filters="sRGB">
<feFlood flood-opacity="0" result="BackgroundImageFix"/>
<feBlend mode="normal" in="SourceGraphic" in2="BackgroundImageFix" result="shape"/>
<feGaussianBlur stdDeviation="180" result="effect1_foregroundBlur_0_1"/>
</filter>
<filter id="filter6_b_0_1" x="-31.3033" y="-13.3033" width="685.604" height="685.604" filterUnits="userSpaceOnUse" color-interpolation-filters="sRGB">
<feFlood flood-opacity="0" result="BackgroundImageFix"/>
<feGaussianBlur in="BackgroundImage" stdDeviation="24.5"/>
<feComposite in2="SourceAlpha" operator="in" result="effect1_backgroundBlur_0_1"/>
<feBlend mode="normal" in="SourceGraphic" in2="effect1_backgroundBlur_0_1" result="shape"/>
</filter>
<filter id="filter7_f_0_1" x="-218" y="-195" width="1079" height="1027" filterUnits="userSpaceOnUse" color-interpolation-filters="sRGB">
<feFlood flood-opacity="0" result="BackgroundImageFix"/>
<feBlend mode="normal" in="SourceGraphic" in2="BackgroundImageFix" result="shape"/>
<feGaussianBlur stdDeviation="135" result="effect1_foregroundBlur_0_1"/>
</filter>
<linearGradient id="paint0_linear_0_1" x1="1000.5" y1="-285.988" x2="277.456" y2="4637.91" gradientUnits="userSpaceOnUse">
<stop stop-color="#000104"/>
<stop offset="0.278583" stop-color="#030526"/>
<stop offset="0.404569" stop-color="#030526"/>
<stop offset="0.607622" stop-color="#02031A"/>
<stop offset="0.743922" stop-color="#030526"/>
<stop offset="0.996081" stop-color="#04031C"/>
</linearGradient>
<radialGradient id="paint1_radial_0_1" cx="0" cy="0" r="1" gradientUnits="userSpaceOnUse" gradientTransform="translate(282.089 104.887) rotate(154.928) scale(250.154 1035.78)">
<stop stop-color="#1E1E42"/>
<stop offset="0.706455" stop-color="#1E1E43" stop-opacity="0.22"/>
</radialGradient>
<radialGradient id="paint2_radial_0_1" cx="0" cy="0" r="1" gradientUnits="userSpaceOnUse" gradientTransform="translate(364.934 6.32686) rotate(165.131) scale(99.8184 267.057)">
<stop stop-color="#1E1E42"/>
<stop offset="0.706455" stop-color="#1E1E43" stop-opacity="0.22"/>
</radialGradient>
<radialGradient id="paint3_radial_0_1" cx="0" cy="0" r="1" gradientUnits="userSpaceOnUse" gradientTransform="translate(1029.77 59.6181) rotate(165.878) scale(490.807 1252.82)">
<stop stop-color="#1E1E42"/>
<stop offset="0.706455" stop-color="#1E1E43" stop-opacity="0.22"/>
</radialGradient>
<radialGradient id="paint4_radial_0_1" cx="0" cy="0" r="1" gradientUnits="userSpaceOnUse" gradientTransform="translate(1002.88 460.447) rotate(166.666) scale(77.675 188.036)">
<stop stop-color="#1E1E42"/>
<stop offset="0.706455" stop-color="#1E1E43" stop-opacity="0.22"/>
</radialGradient>
<radialGradient id="paint5_radial_0_1" cx="0" cy="0" r="1" gradientUnits="userSpaceOnUse" gradientTransform="translate(59.8665 165.229) rotate(38.1111) scale(633.542 679.666)">
<stop stop-color="#000105" stop-opacity="0.58"/>
<stop offset="0.961353" stop-color="#0C1138" stop-opacity="0.1"/>
</radialGradient>
<radialGradient id="paint6_radial_0_1" cx="0" cy="0" r="1" gradientUnits="userSpaceOnUse" gradientTransform="translate(104.615 72.4571) rotate(82.3414) scale(887.249 887.256)">
<stop offset="0.201223" stop-color="#0303FF" stop-opacity="0"/>
<stop offset="0.323218" stop-color="white"/>
<stop offset="0.417215" stop-color="#000BFF" stop-opacity="0"/>
<stop offset="0.535687" stop-color="white" stop-opacity="0"/>
<stop offset="1" stop-color="white" stop-opacity="0"/>
</radialGradient>
<radialGradient id="paint7_radial_0_1" cx="0" cy="0" r="1" gradientUnits="userSpaceOnUse" gradientTransform="translate(569.763 176.672) rotate(115.31) scale(432.378 406.722)">
<stop offset="0.0253396" stop-color="white"/>
<stop offset="0.399386" stop-color="#1053FF"/>
<stop offset="0.678784" stop-color="#1053FF" stop-opacity="0"/>
</radialGradient>
<clipPath id="clip0_0_1">
<rect width="1920" height="4509" fill="white" transform="translate(-945 -2716)"/>
</clipPath>
</defs>
</svg>
